<svg id="Layer_1" enable-background="new 0 0 75 75" viewBox="0 0 75 75" xmlns="http://www.w3.org/2000/svg"><g id="Spa_Therapy"><path d="m48.1455078 15.9226189c.3653297.2012405.8203697.0671673 1.0195313-.293457 2.4482422-4.4277344-.5332031-7.8876953-2.4521484-9.0981445-.2675781-.168457-.6083984-.152832-.8583984.0405273-5.5810547 4.3032227-2.4804688 9.0390625-2.4482422 9.0864258.2304688.3432617.6962891.4331055 1.0410156.2016602.3427734-.2319336.4335938-.6982422.2011719-1.0415039-.0947266-.140625-2.2050781-3.3740234 1.6884766-6.7070313 1.0390625.8364258 3.4550781 3.2856445 1.515625 6.7924805-.2001954.3623046-.0693361.8188476.2929686 1.0190429z"/><path d="m36.3076172 56.6193962c13.4508057 0 31.9022217-5.0368652 33.1434326-14.5129395.2524414-.2670898.2530518-.5117188.2530518-.7131348 0-.7548828 0-1.8955078-10.5458984-2.7905273-.4052734-.0332031-.7753906.2709961-.8105469.6835938s.2705078.7758789.6835938.8105469c5.5498047.4711914 7.796875.9902344 8.6943359 1.3007813-1.3953857.4807129-5.3436279 1.1711426-13.8583984 1.6472168v-22.1447755c0-1.2236328-.9951172-2.21875-2.21875-2.21875h-4.2915039c-1.0670166-1.3122559-.2344971-3.3146973-.2250977-3.3354492.1650391-.378418-.0068359-.8198242-.3847656-.9868164-.3779297-.1665039-.8212891.003418-.9892578.3833008-.0447998.1022949-.9031982 2.1015625-.1500244 3.9389648h-5.1253662c-1.2236328 0-2.21875.9951172-2.21875 2.21875v7.3944092c-1.4307861-1.6673584-3.5283203-2.5860596-5.7626953-2.4769287-3.798193.1923237-11.3945732.5771008-15.192749.7697754-4.7668457.0343018-8.635376 3.9199219-8.635376 8.6945801 0 2.935791 1.4664307 5.5313721 3.7009277 7.1070557-2.800415-.3143311-4.7307129-.6602783-5.6540527-.9859619.2617188-.0922852.6376953-.2036133 1.1757813-.3242188.4042969-.0908203.6582031-.4921875.5673828-.8964844-.0908203-.4038086-.4990234-.6547852-.8955078-.5673828-1.6914064.3803711-2.817383.828125-2.817383 1.7783203 0 .0773926.0007324.1589355.012085.2438965.2589111 9.8354492 15.9924316 14.9821777 31.5455322 14.9821777zm4.3730469-27.0209961c2.171875 0 3.7949219.9145508 3.7949219 1.7319336s-1.6230469 1.7319336-3.7949219 1.7319336-3.7949219-.9145508-3.7949219-1.7319336 1.6230469-1.7319336 3.7949219-1.7319336zm-30.5078125 5.6835938c0-3.96875 3.2294922-7.1977539 7.1982422-7.1977539s7.1972656 3.2290039 7.1972656 7.1977539-3.2285156 7.1972656-7.1972656 7.1972656-7.1982422-3.2285156-7.1982422-7.1972656zm11.6998291-7.4279785 10.7044678-.5383301c1.6430664-.0814209 3.2138672.5546875 4.3382568 1.72229-3.2365036 1.9805908-1.0778198 5.524292 3.7652588 5.524292 2.96875 0 5.2949219-1.4194336 5.2949219-3.2319336s-2.3261719-3.2319336-5.2949219-3.2319336c-.3150635 0-.6182861.0240479-.9169922.0548096v-7.2530518c0-.3964844.3222656-.71875.71875-.71875h11.1660156c.3964844 0 .71875.3222656.71875.71875v22.223877l-6.2232666.232666h-.4438477c2.8372307-1.5046349 3.0729866-3.8968315 1.4512939-5.5498047-.2890625-.2949219-.765625-.300293-1.0605469-.0097656-.2958984.2900391-.2998047.7651367-.0097656 1.0605469.3828125.3901367.5771484.7954102.5771484 1.2055664 0 1.3798828-2.4560547 2.9169922-5.9794922 2.9169922s-5.9794922-1.5371094-5.9794922-2.9169922c0-.3955078.1806641-.7880859.5371094-1.1669922.2832031-.3017578.2685547-.7763672-.0332031-1.0600586-.2998047-.2832031-.7744141-.2700195-1.0605469.0327148-1.5680084 1.6684914-1.2981262 4.105751 1.7047119 5.5895996-5.5986328-.020752-10.5141602-.1628418-14.6447754-.3804932 6.1570684-3.0385665 6.5614778-11.6393031.6701662-15.2239989zm-7.1441651 16.2810058c9.954958.8849411 43.5004539 1.5881233 52.9937744-1.1923828-2.3903809 7.590332-19.1425781 12.1767578-31.4146729 12.1767578-13.7561035 0-28.3205566-4.2893066-29.907959-12.2703857 1.3552247.4381103 3.8226319.8853759 8.3288575 1.2860107z"/><path d="m35.9404297 38.0876579c3.6172676 2.2755241 10.6787109.9794044 10.6787109-2.5727539 0-.4741211-.1376953-.9335938-.4091797-1.3647461-.2207031-.3505859-.6845703-.4550781-1.0341797-.2348633-.3505859.2211914-.4560547.684082-.2353516 1.034668.4653969.734333-.0539436 1.3954239-.7841797 1.8681641-1.9186516 1.207058-5.4833298 1.2165375-7.4091797.0048828-.7832222-.5066681-1.2867355-1.1939812-.7392578-1.9506836.2431641-.3354492.1679688-.8046875-.1679688-1.0473633-.3349609-.2421875-.8046875-.1674805-1.046875.1674805-.9023627 1.2466202-.6847495 2.9114265 1.1474611 4.0952148z"/><path d="m65.6806641 58.0241814h-56.2519532c-2.5185547 0-4.5683594 2.0498047-4.5683594 4.5688477v5.2421913c0 .4140625.3359375.75.75.75s.75-.3359375.75-.75v-5.2421914c0-1.6923828 1.3759766-3.0688477 3.0683594-3.0688477h56.2519531c1.6923828 0 3.0693359 1.3764648 3.0693359 3.0688477v5.2421913c0 .4140625.3359375.75.75.75s.75-.3359375.75-.75v-5.2421913c.0000001-2.5190429-2.0498046-4.5688476-4.5693358-4.5688476z"/><path d="m18.6289063 41.4050407h.0078125c.4111328 0 .7460938-.3305664.75-.7421875.0039063-.4140625-.328125-.753418-.7421875-.7578125-2.7519531-.0283203-4.96875-2.2905273-4.9404297-5.0429688.020937-2.0522919 1.6712685-3.8037109 3.8828125-3.8037109 2.4837151.0248222 3.7656975 2.9998398 2.2373047 4.4960938-.4121094.4038086-.9550781.6254883-1.5322266.6254883-.0068359 0-.0146484 0-.0224609 0-.8828125-.0087891-1.5947266-.7348633-1.5859375-1.6181641.0056705-.5849113.4615078-1.1086617 1.1435547-1.1196289.3964844.0126953.7539063-.3276367.7578125-.7421875.0143909-1.5254669-3.3766022-.7006111-3.4013672 1.8466797-.0283709 2.9230423 3.5214252 4.2049751 5.6904297 2.0795898 2.5054379-2.4550514.5097866-7.0683594-3.328125-7.0683594-2.9199219 0-5.3115234 2.3608398-5.3417969 5.2885742-.0361691 3.5903855 2.8782892 6.5216371 6.4248047 6.5585938z"/></g></svg>