<svg id="_&#x43B;&#x43E;&#x439;_1" viewBox="0 0 1519.59 1108.27" xmlns="http://www.w3.org/2000/svg"><g fill="none" stroke-linecap="round" stroke-linejoin="round" stroke-width="23.11" transform="translate(-241.96 -414.15)"><path d="" stroke="#493939"/><g stroke="#000"><path d="m783.36 908c15.76 27.85 25.75 40.13 50.85 75.44"/><path d="m882.23 957c70.27-43 32.53-20.6 102.77-63.55"/><path d="m488.61 766.07c9.75-3.45 20.33.88 29.94 4.72 37.24 14.88 76.72 23.14 116 31.33l56.61 11.88c32.4 6.76 65 13.55 98 15 12.46.56 25.56.21 36.44-5.88a38.54 38.54 0 0 0 19.29-30.89c.71-12.65-.22-23.78-15.73-39.29-7.87-7.87-23.65-15.12-33.71-19.9"/><path d="m474.25 865.08c8.76-7 21.36-5.18 32.35-3l161.63 31.76c13.4 2.63 27.12 5.28 40.63 3.24a60.24 60.24 0 0 0 35.89-19.56c5.27-6 9.42-13.35 9.76-21.32.52-11.89-7.31-22.39-15.13-31.36"/><path d="m553.83 972.95a68.48 68.48 0 0 1 -97.76-4.6l-9.44-10.35a121.3 121.3 0 0 1 -30-61.48c-1.14-6.83-2-13.72-2.84-20.52l-5.88-48.06c-1.61-13.16-3.22-26.51-1.23-39.61 2.05-13.55 7.86-26.25 10.73-39.65 4.1-19.11 2.23-39.52 9.38-57.71 8.58-21.79 28.5-36.63 43.64-54.5 12.17-14.36 21.42-31 33.4-45.49s27.73-27.29 46.38-29.81c9.55-1.29 19.25.19 28.74 1.85 89.4 15.68 175.64 48.1 254.31 93.35 15.8 9.09 33 21.37 34.43 39.54 1 13.66-8 26.73-20.08 33.28s-26.42 7.45-40 5.76c-13.29-1.65-26.16-5.62-39-9.56l-100.54-31c-16.19-5-32.44-10-49.16-12.72-24.28-4-49.55-3.11-72.76-11.25"/><path d="m495.88 954.92a365.22 365.22 0 0 0 117.52 10.33c14.24-1.07 29.14-3.26 40.52-11.89 16.52-12.54 21-38.33 9.72-55.73"/><path d="m785.76 585.62c27.33-20.15 75.1-18.85 88.91-2.9a30.16 30.16 0 0 1 6 9.91c2 5.8 1.33 12.16.09 18.16a95.67 95.67 0 0 1 -27.17 49.29"/><path d="m419.71 718.81c-32.36 53.76-71 107.27-80.48 169.3-1.92 12.6-2.83 25.55-.22 38 4.56 21.78 19.3 40 35.11 55.62a335.9 335.9 0 0 0 83.41 60.46c8.57 4.38 18.32 8.48 27.56 5.77 10.45-3.06 16.53-13.64 21.55-23.31 6.52-12.56 9.81-18.63 16.32-31.18"/><path d="m420.46 709.07c-66.64 52.37-87.86 55.49-163.21 94.28"/><path d="m260.61 1173.22c31.79-.2 98.28 18.52 187.88-82.72"/><path d="m891 742.14a55.28 55.28 0 0 0 31.35 21.15c9.26 2.27 19 2.1 28.23 4.45 21.86 5.54 37.36 24.57 49.08 43.84 15.19 25 15.19 25 32.75 59.1"/><path d="m838 987.32c17.88 16.47 41.66 23.61 65.89 21.67s47.28-12 67.38-25.68c36-24.47 66.63-65.78 61.67-109"/><path d="m677.32 581.36a824.93 824.93 0 0 1 -45-87c-4.57-10.29-9-21.59-6.36-32.53 4.23-17.41 24-26.06 41.76-28.63 15.4-2.23 24.24 11.95 26 14 25.7 30.73 38.2 55.09 58.76 89.47 10.44 17.45 12.1 20.69 31.95 48.14"/><path d="m638.66 436.54c-35.51-18.08-78.47-10.67-116.42 1.5-121.45 38.96-203.97 123.49-268.72 233.36"/><path d="m909.59 1040.84a300.12 300.12 0 0 0 31.41 201.68c22.13 40 41.25 64.05 78.82 90.1"/><path d="m1042.58 786.94c46.89-39.84 93.16-55.42 153.83-65.68 23.47-4 83.34 2.6 134.28 13.51 12.49 2.68 28.63 2.82 41 7.45 18.64 7 22.39 15.75 38.76 26.84"/><path d="m1427.17 812.4c4.89 4.69 10.75 8.88 17.49 9.58s14.43-9.47 14.43-19"/><path d="m1269.78 1122.68a70.81 70.81 0 0 0 -33 113c20.05 23.94 53.94 32.06 85.11 30 46.63-3 69.76-19.92 97.54-42.14"/><path d="m1274.58 1166.65a21.9 21.9 0 0 1 17.8-.93c4.84 1.9 8.81 5.45 12.67 8.93 7.29 6.58 14.95 13.77 17.18 23.32 1.05 4.49.9 9.47 3.54 13.26"/><path d="m1326.66 882.29c10.44-9.8 28.15-29.52 23.51-47.15"/><path d="m1316.33 845.69a18.46 18.46 0 0 1 22.23 1.86"/><path d="m1453.17 797.79c1.63 1.27.32 0 2 1.23"/><path d="m1750 694.85c-63.94 17.86-123.53 51.4-179 88.65-69.63 46.79-135 100.21-208.09 141.35-19.39 10.91-38.58 22.23-55.81 36.31-16.78 13.7-32.94 23.57-26.62 58.77 0 0 6.37 20.35 21.32 20.46 30.75.23 60.18-13 86.55-28.86s50.34-35.29 75.76-52.6c22.67-15.43 46.46-29.13 70.35-42.59 13.61-7.67 27.36-15.34 39.35-25.37s22.25-22.68 26.94-37.59"/><path d="m1324.7 1040.83a278.39 278.39 0 0 0 -26.16 25.9c-12.36 14-23.93 32.61-17.8 50.23 6.07 17.43 27.66 25.18 45.86 22.1s33.86-14.15 49.25-24.36c23.61-15.67 48.1-30 72.58-44.26l81.44-47.54c44.71-26.1 89.63-52.31 137.78-71.33"/><path d="m1424.17 1084.72c-11.52 9.62-18.9 19.12-28.53 30.64s-17.28 25.09-19.66 39.91c-1 5.91-1 12.32 2.14 17.44 2.36 3.9 6.28 6.61 10.39 8.58 12.34 5.9 26.85 5.86 40.13 2.63s26.48-7.93 35.21-19.83"/><path d="m1746.58 1034.07c-44.68 1.44-90.74 3.89-131.08 23.15-21.38 10.21-40.34 24.79-61 36.46-22.77 12.89-47.54 22.22-69.27 36.8-7.87 5.28-15.57 11.57-19.43 20.22s-2.71 20.17 4.86 25.87c6.07 4.56 14.37 4.38 21.93 3.75a361.47 361.47 0 0 0 120.46-31.59c12.6-5.78 24.86-12.28 37.52-17.93 30.9-13.78 63.77-22.3 96.83-29.77"/><path d="m1326.09 1214.53c3.35 2.09 7.74 1.91 11.42.48s6.83-3.95 9.9-6.43"/><path d="m1450.4 881.56a23.8 23.8 0 0 1 4.27 24.18"/><path d="m1470.66 988.24a29 29 0 0 1 7.88 16.72"/><path d="m1618.24 1095.43a14.11 14.11 0 0 0 2.3 5.59"/><path d="m1524.54 1364.45c-12.21-15.3-17.46-35.34-17.49-54.92s4.81-38.86 11-57.43a390.32 390.32 0 0 1 17.44-43.34c5.54-11.7 11.77-23.46 13.13-36.34"/><path d="m1075 1353.49c47 3 122.3 4.78 161.52 3.66 11.39-.33 22.79-.91 34.1-2.35a228.54 228.54 0 0 0 134.93-68"/><path d="m1346 1334.19c18.52-3.92 37.64.31 56.28 3.61a566.63 566.63 0 0 0 108.82 8.55"/><path d="m1235 1048.28c-11.2-10.07-28.29-10.32-42.84-6.42s-28 11.27-42.66 14.8a84.41 84.41 0 0 1 -103.19-69.27"/><path d="m1358.42 783.74c11.35 3.75 24 1.42 34.7-4s26.29-18 39-22c0 0 27.18-5 44.54 13.75a40.49 40.49 0 0 0 13.53 10c6.85 2.93 14.66 1.48 22.11 1.12 17-.84 24.49 4.62 38.06 14.86"/><path d="m1266.58 881.62c-9.69-22.36-4.47-75.29 12.67-82.74"/><path d="m1303.78 751.47a23.05 23.05 0 0 1 16.29-17.27"/><path d="m911.14 1305.27c-41.83 18.14-88.34 21.33-133.71 25.79-181.12 17.83-344.92 60-514.94 124.89"/><path d="m399.87 1494.59a1015.07 1015.07 0 0 1 492.32-68.53"/><path d="m1024.78 1510.87a650.5 650.5 0 0 1 120.91-28.54c13.22-1.81 26.6-3.21 39.89-2 16.65 1.56 32.62 7.23 49 10.45 19.19 3.76 38.87 4.15 58.43 4.53l399.59 7.68"/><path d="m1002.69 1409.4c69.71 1.85 326.87 8.59 396.58 10.44"/><path d="m1567 1376.6h176.7"/></g></g></svg>