<svg enable-background="new 0 0 510 510" viewBox="0 0 510 510" xmlns="http://www.w3.org/2000/svg"><g id="_x34_4_x2C__cupping_x2C__physiotherapy_x2C__healthcare_and_medical_x2C__rehabilitation_x2C__therapy_x2C__recovery"><g><g><path d="m469.915 190.073c6.326-8.375 10.085-18.792 10.085-30.073 0-27.57-22.43-50-50-50-16.339 0-30.87 7.878-40 20.035-9.13-12.157-23.661-20.035-40-20.035v-5c0-15.824-10.56-29.223-25-33.537v-21.463c0-5.522-4.478-10-10-10s-10 4.478-10 10v21.463c-14.44 4.314-25 17.712-25 33.537v5h-30v-5c0-15.824-10.56-29.223-25-33.537v-21.463c0-5.522-4.478-10-10-10s-10 4.478-10 10v21.463c-14.44 4.314-25 17.712-25 33.537v5h-30v-5c0-15.824-10.56-29.223-25-33.537v-21.463c0-5.522-4.478-10-10-10s-10 4.478-10 10v21.463c-14.44 4.314-25 17.713-25 33.537v5c-27.57 0-50 22.43-50 50 0 11.281 3.759 21.698 10.085 30.073-22.315 1.257-40.085 19.803-40.085 42.427v35c0 22.595 17.725 41.121 40 42.42v125.08c0 19.299 15.701 35 35 35s35-15.701 35-35v-125h100.33c5.522 0 10-4.478 10-10s-4.478-10-10-10c-50.567 0-117.402 0-167.83 0-12.406 0-22.5-10.094-22.5-22.5v-35c0-12.406 10.094-22.5 22.5-22.5h69.5c5.522 0 10-4.478 10-10s-4.478-10-10-10h-32c-16.542 0-30-13.458-30-30s13.458-30 30-30h270c16.542 0 30 13.458 30 30s-13.458 30-30 30c-22.788 0-13.639 0-37.552 0-5.522 0-10 4.478-10 10v24.878c0 2.086.652 4.119 1.865 5.815l43.186 60.407c3.63 5.077 2.942 13.401-1.471 17.814-3.585 3.583-8.48 3.277-11.572-.782l-45.925-60.337c-3.923-5.154-6.083-11.56-6.083-18.036v-29.721c0-.013.002-.025.002-.039 0-5.522-4.478-10-10-10h-120.45c-5.522 0-10 4.478-10 10s4.478 10 10 10h110.448v19.76c0 10.827 3.611 21.534 10.169 30.149l22.904 30.092h-45.19c-5.522 0-10 4.478-10 10s4.478 10 10 10h60.413l7.799 10.246c10.399 13.662 29.455 14.988 41.628 2.811 3.69-3.689 6.342-8.201 7.93-13.057h31.899v125c0 19.299 15.701 35 35 35s35-15.701 35-35v-125.08c22.275-1.299 40-19.826 40-42.42v-35c0-22.624-17.77-41.17-40.085-42.427zm-379.915 119.927v125c0 8.271-6.729 15-15 15s-15-6.729-15-15v-125zm10-200v-5c0-8.271 6.729-15 15-15s15 6.729 15 15v5zm100 0v-5c0-8.271 6.729-15 15-15s15 6.729 15 15v5zm100 0v-5c0-8.271 6.729-15 15-15s15 6.729 15 15v5zm130 20c16.542 0 30 13.458 30 30s-13.458 30-30 30-30-13.458-30-30 13.458-30 30-30zm20 305c0 8.271-6.729 15-15 15s-15-6.729-15-15v-125h30zm40-167.5c0 12.406-10.094 22.5-22.5 22.5-11.81 0-88.11 0-98.807 0-.994-3.739-2.627-7.318-4.923-10.53l-41.321-57.799v-11.671h145.052c12.406 0 22.5 10.094 22.5 22.5v35z"/></g></g></g><g id="Layer_1"/></svg>