<?xml version="1.0"?>
<svg xmlns="http://www.w3.org/2000/svg" viewBox="0 0 64 64"><g data-name="Layer 14" id="Layer_14"><path d="M45,48H36V45.3A12.01,12.01,0,0,0,44,34v-.359l1.921-.974a5.018,5.018,0,0,0,2.53-3.023l2-6.669h0A13.012,13.012,0,0,0,51,19.239V3a1,1,0,0,0-1-1H41a1,1,0,0,0-.994,1.11l.375,3.374A12.935,12.935,0,0,0,36.891,6H27.109a12.935,12.935,0,0,0-3.49.484l.375-3.374A1,1,0,0,0,23,2H14a1,1,0,0,0-1,1V19.239a13.012,13.012,0,0,0,.548,3.735h0l2,6.669a5.018,5.018,0,0,0,2.53,3.023L20,33.641V34a12.01,12.01,0,0,0,8,11.3V48H19a9.011,9.011,0,0,0-9,9v4a1,1,0,0,0,1,1H53a1,1,0,0,0,1-1V57A9.011,9.011,0,0,0,45,48ZM49,4V19.239a10.977,10.977,0,0,1-.464,3.16l-2,6.67a3.008,3.008,0,0,1-1.518,1.814L44,31.4V21a1,1,0,0,0-1.832-.555L39.23,24.852a.915.915,0,0,1-1.58-.917l3.279-6.563,2-5a1,1,0,0,0,.065-.482L42.117,4ZM25.314,17.4a11.03,11.03,0,0,1,3.737-2.422l.549-.211A10.339,10.339,0,0,0,32,13.445a10.255,10.255,0,0,0,2.4,1.319l.549.211a10.89,10.89,0,0,1,3.737,2.418l-.243.485a11.992,11.992,0,0,0-12.888,0ZM40.623,8.665l.356,3.2-1.435,3.593a12.9,12.9,0,0,0-3.877-2.347l-.548-.211a8.239,8.239,0,0,1-1.587-.845A10.187,10.187,0,0,0,35.766,8h1.125A10.937,10.937,0,0,1,40.623,8.665ZM27.109,8h6.578a8.221,8.221,0,0,1-4.8,4.9l-.549.211a13.068,13.068,0,0,0-3.875,2.343l-1.437-3.59.356-3.2A10.96,10.96,0,0,1,27.109,8ZM18.982,30.883a3.01,3.01,0,0,1-1.517-1.814l-2-6.67A10.977,10.977,0,0,1,15,19.239V4h6.883l-.877,7.89a1,1,0,0,0,.065.482l2.034,5.075,3.245,6.488a.915.915,0,0,1-1.58.917l-2.938-4.407A1,1,0,0,0,20,21V31.4ZM22,34V24.3l1.105,1.658a2.915,2.915,0,0,0,5.034-2.92l-1.682-3.36a9.983,9.983,0,0,1,11.085,0l-1.681,3.362a2.915,2.915,0,0,0,5.034,2.92L42,24.3V34a10,10,0,0,1-20,0ZM52,60H47V57a1,1,0,0,0-2,0v3H19V57a1,1,0,0,0-2,0v3H12V57a7.008,7.008,0,0,1,7-7H29a1,1,0,0,0,1-1V45.819a11.14,11.14,0,0,0,4,0V49a1,1,0,0,0,1,1H45a7.008,7.008,0,0,1,7,7Z"/><path d="M29.707,28.293a1,1,0,0,0-1.414,0,1.831,1.831,0,0,1-2.586,0,1,1,0,0,0-1.414,1.414,3.831,3.831,0,0,0,5.414,0A1,1,0,0,0,29.707,28.293Z"/><path d="M37,30.827a3.814,3.814,0,0,0,2.707-1.12,1,1,0,0,0-1.414-1.414,1.831,1.831,0,0,1-2.586,0,1,1,0,0,0-1.414,1.414A3.814,3.814,0,0,0,37,30.827Z"/><path d="M35.555,40.832a1,1,0,1,0-1.11-1.664,4.4,4.4,0,0,1-4.89,0,1,1,0,0,0-1.11,1.664,6.391,6.391,0,0,0,7.11,0Z"/></g></svg>
