<svg id="Layer_5" enable-background="new 0 0 64 64" height="512" viewBox="0 0 64 64" width="512" xmlns="http://www.w3.org/2000/svg"><path d="m53 51h-2c-1.633 0-3.036.987-3.657 2.393-1.143-1.556-1.84-4.372-2.154-8.64 10.451-4.388 17.811-14.726 17.811-26.753 0-5.21-6.032-8.631-17.909-10.177-.676-.994-1.507-1.885-2.49-2.623l-.601-.45-.6.45c-.794.595-1.489 1.291-2.085 2.057-3.258-.221-5.96-.257-7.315-.257-.274 0-.614.002-1 .006v-.006h-3c-1.149 0-2.254.185-3.296.513-.585-2.522-2.019-4.749-4.103-6.313l-.601-.45-.6.45c-1.977 1.483-3.378 3.558-4.016 5.919-.456-.071-.917-.119-1.384-.119h-5v1c0 .66.069 1.303.181 1.931-5.426 1.866-8.181 4.577-8.181 8.069 0 12.027 7.36 22.365 17.811 26.752-.314 4.268-1.012 7.084-2.154 8.64-.621-1.405-2.024-2.392-3.657-2.392h-2c-3.309 0-6 2.691-6 6s2.691 6 6 6c10.66 0 13.012-9.098 13.689-16.496 1.405.261 2.844.421 4.311.471v4.806c-.609.549-1 1.337-1 2.22v6c0 1.654 1.346 3 3 3h2c1.654 0 3-1.346 3-3v-6c0-.883-.391-1.67-1-2.22v-4.806c1.467-.05 2.906-.21 4.311-.471.677 7.398 3.029 16.496 13.689 16.496 3.309 0 6-2.691 6-6s-2.691-6-6-6zm-11-43.708c1.299 1.16 2.226 2.665 2.682 4.345-.991.395-1.897.958-2.679 1.658-.794-.711-1.705-1.267-2.685-1.656.455-1.682 1.381-3.187 2.682-4.347zm8.54 7.531c5.077 1.221 6.46 2.594 6.46 3.177 0 1.745-8.586 5-25 5s-25-3.255-25-5c0-.504 1.028-1.62 4.77-2.726 2.017 2.279 4.954 3.726 8.23 3.726 4.254 0 7.944-2.431 9.773-5.973 1.087-.021 2.189-.026 3.288-.016.504 4.488 4.318 7.989 8.939 7.989 3.976 0 7.352-2.595 8.54-6.177zm-9.871-.038c-.754 1.056-1.285 2.281-1.524 3.605-2.149-.964-3.728-2.981-4.073-5.391h.928c1.73.001 3.392.644 4.669 1.786zm1.331 4.215c-.312 0-.619-.021-.92-.06.513-3.359 3.42-5.94 6.92-5.94h.929c-.487 3.388-3.408 6-6.929 6zm-3.892-9.815c-.299.616-.542 1.262-.723 1.93-.456-.071-.918-.115-1.385-.115h-3v.011c-.812-.007-1.62-.005-2.43.005.185-.648.316-1.318.379-2.008.408-.006.766-.008 1.051-.008 1.178 0 3.395.028 6.108.185zm-9.164-.185c-.499 4.494-4.319 8-8.944 8-.317 0-.631-.017-.939-.049.521-4.47 4.331-7.951 8.939-7.951zm-8.944-5.708c1.468 1.311 2.458 3.061 2.833 5.009-.811.434-1.566.959-2.24 1.574-.92-.99-2.045-1.74-3.277-2.23.455-1.684 1.382-3.191 2.684-4.353zm-6 5.708c1.995 0 3.897.854 5.238 2.356-1.122 1.476-1.88 3.242-2.14 5.164-3.24-1.106-5.654-4.013-6.043-7.521h2.945zm-4.288 2.859c.225.597.498 1.168.818 1.71-3.661 1.186-5.53 2.672-5.53 4.431 0 5.136 16.146 7 27 7s27-1.864 27-7c0-2.134-2.708-3.859-8.044-5.134.028-.285.044-.574.044-.866v-1h-3c-.472 0-.933.045-1.385.116-.103-.38-.229-.752-.371-1.116 6.219.942 14.756 3.124 14.756 8 0 6.643-15.622 9-29 9s-29-2.357-29-9c0-2.528 2.257-4.592 6.712-6.141zm1.288 49.141c-2.206 0-4-1.794-4-4s1.794-4 4-4h2c1.103 0 2 .897 2 2s-.897 2-2 2-2-.897-2-2h-2c0 2.206 1.794 4 4 4 1.872 0 3.435-1.297 3.869-3.037 2.187-1.514 3.411-4.8 3.892-10.481.642.216 1.29.417 1.95.589-.922 10.44-4.446 14.929-11.711 14.929zm23-1c0 .551-.448 1-1 1h-2c-.552 0-1-.449-1-1v-6c0-.551.448-1 1-1h2c.552 0 1 .449 1 1zm-3-9v-14h2v14zm2-16h-2c-1.103 0-2 .897-2 2v7.975c-2.638-.097-5.179-.574-7.573-1.378 1.904-1.387 3.573-3.709 3.573-7.597 0-3.706-3.634-6-7-6h-1c-2.206 0-4 1.794-4 4s1.794 4 4 4 4-1.794 4-4h-2c0 1.103-.897 2-2 2s-2-.897-2-2 .897-2 2-2h1c2.404 0 5 1.529 5 4 0 3.205-1.302 5.387-3.938 6.676-7.982-3.552-13.931-10.862-15.59-19.673 6.26 5.481 22.69 5.997 28.528 5.997s22.268-.516 28.528-5.997c-1.658 8.811-7.608 16.12-15.589 19.673-2.637-1.289-3.939-3.471-3.939-6.676 0-2.471 2.596-4 5-4h1c1.103 0 2 .897 2 2s-.897 2-2 2-2-.897-2-2h-2c0 2.206 1.794 4 4 4s4-1.794 4-4-1.794-4-4-4h-1c-3.366 0-7 2.294-7 6 0 3.88 1.659 6.202 3.575 7.596-2.395.804-4.936 1.282-7.575 1.379v-7.975c0-1.103-.897-2-2-2zm20 26c-7.265 0-10.789-4.489-11.712-14.929.661-.172 1.309-.373 1.95-.589.481 5.681 1.704 8.967 3.892 10.481.434 1.739 1.998 3.037 3.87 3.037 2.206 0 4-1.794 4-4h-2c0 1.103-.897 2-2 2s-2-.897-2-2 .897-2 2-2h2c2.206 0 4 1.794 4 4s-1.794 4-4 4z"/></svg>