<svg width="349" height="458" viewBox="0 0 349 458" fill="none" xmlns="http://www.w3.org/2000/svg">
<path fill-rule="evenodd" clip-rule="evenodd" d="M276.54 5.83V68.98H321.29V5.83C321.29 2.62 318.68 0 315.45 0H282.34C279.16 0 276.54 2.62 276.54 5.83ZM236.57 458L90.84 339.63L58.79 345.19C27.92 350.54 5.75 375.14 3.59 406.38L0 458H236.57ZM255.64 339.22L290.06 345.19C320.89 350.54 343.1 375.14 345.26 406.38L348.81 458H255.59L182.51 398.63L255.64 339.22ZM174.5 302.28C186.71 302.28 199.77 298.24 212.02 291.23C213.33 310.66 224.84 327.08 241.83 334.97L172.99 390.91L105.13 335.79C123.14 328.24 135.47 311.31 136.77 291.14C149.11 298.2 162.21 302.28 174.5 302.28ZM27.51 68.99H72.3V5.83C72.3 2.62 69.69 0 66.46 0H33.35C30.12 0 27.51 2.62 27.51 5.83V68.99ZM72.3 106.6V80.99H27.51V106.94C27.51 170.99 53.81 203.48 93.9 245.75C95.78 247.71 98.68 247.97 100.88 246.39L101 246.3C103.08 244.78 103.65 241.95 102.39 239.72L60.01 166.76C59.48 165.84 59.19 164.8 59.19 163.75V142.79C59.19 139.47 61.88 136.79 65.19 136.79C68.5 136.79 71.19 139.48 71.19 142.79V162.13L83.19 182.83C85.39 180.72 86.74 177.77 86.74 174.59V141.52C86.74 133.86 83.72 126.58 78.21 121.03C74.34 117.11 72.3 112.12 72.3 106.6ZM86.35 112.13C84.96 110.55 84.31 108.78 84.31 106.6V100.57C87.49 71.8 108.97 53.94 140.41 53.94C145.39 53.94 150.29 54.5 155.07 55.56C127.87 67.2 102.72 87.62 86.35 112.13ZM248.49 212.29L236.08 233.69C232.57 239.71 233.14 247 237.06 252.33C221.42 274.87 196.27 290.28 174.51 290.28C152.71 290.28 127.51 274.81 111.83 252.19C115.71 246.87 116.24 239.65 112.77 233.69L100.44 212.5C111.22 179.98 140.01 157.54 174.39 145.02C212.4 158.83 238.57 182.6 248.49 212.29ZM250.9 133.28C231.75 132.54 211.62 134.59 192.47 139.46C222.77 153.37 244.78 173.97 256.17 199.07L259.52 193.35C253.68 189.01 250.09 182.1 250.09 174.59V141.52C250.08 138.72 250.37 135.96 250.9 133.28ZM260.29 114.53C258.37 116.7 256.74 119.03 255.35 121.48C192.18 117.82 117.87 143.53 92.76 199.25L89.33 193.35C95.13 189.01 98.76 182.1 98.76 174.59V141.52C98.76 134.77 97.09 128.25 93.98 122.4C114.23 89.63 151.55 64.06 187.89 58.31C205.49 55.52 222.72 59.95 236.4 70.79C249.76 81.39 258.33 97.22 260.29 114.53ZM321.29 80.99H276.54V106.6C276.54 112.12 274.46 117.11 270.58 121.03C265.11 126.58 262.09 133.86 262.09 141.52V174.59C262.09 177.77 263.4 180.72 265.6 182.83L277.65 162.13V142.79C277.65 139.47 280.34 136.79 283.65 136.79C286.96 136.79 289.65 139.48 289.65 142.79V163.75C289.65 164.81 289.36 165.84 288.83 166.76L246.45 239.72C245.14 241.95 245.71 244.77 247.84 246.29L247.96 246.39C250.12 247.97 253.06 247.7 254.9 245.75C295.04 203.48 321.29 170.99 321.29 106.94V80.99Z" fill="black"/>
</svg>
