<svg id="Kris" viewBox="0 0 64 64" xmlns="http://www.w3.org/2000/svg"><path d="m39.74 30c-.56-.05-1.04.36-1.08.91l-.27 3.09h-8.76l-.27-3.09c-.05-.55-.52-.96-1.08-.91-.55.05-.96.53-.91 1.08l1.33 15c.05.52.48.91 1 .91h.09c.55-.05.96-.53.91-1.08l-.52-5.91h7.7l-1.59 17.92c-.1 1.18-1.08 2.08-2.26 2.08s-2.16-.89-2.26-2.08l-.71-8.01c-.05-.55-.52-.96-1.08-.91-.55.05-.96.53-.91 1.08l.71 8.01c.2 2.22 2.03 3.9 4.26 3.9s4.06-1.68 4.26-3.9l2.39-27.01c.05-.55-.36-1.04-.91-1.08zm-1.71 8h-8.05l-.18-2h8.41z"/><path d="m31 12.77v.97c0 .55.45 1 1 1s1-.45 1-1v-1.79c0-.51-.38-.94-.89-.99-1.77-.2-3.11-1.68-3.11-3.46 0-1.93 1.57-3.5 3.5-3.5s3.5 1.57 3.5 3.5v6.48c0 .55.45 1 1 1s1-.45 1-1v-6.48c0-3.03-2.47-5.5-5.5-5.5s-5.5 2.47-5.5 5.5c0 2.49 1.67 4.62 4 5.27z"/><path d="m48.72 15.09c-.28-.29-.7-.38-1.07-.24-6.56 2.49-13.42 2.83-20.39 1.01-.54-.14-1.08.18-1.22.72-.14.53.18 1.08.72 1.22 6.63 1.73 13.17 1.61 19.47-.34l-2.05 4.92-4.53 3.62h-11.36l-7.48-4.67-2.77-6.93c1.18.64 2.74 1.39 4.61 2.1.51.2 1.09-.06 1.29-.58s-.06-1.09-.58-1.29c-4.18-1.59-6.74-3.42-6.77-3.44-.36-.26-.85-.25-1.2.02s-.48.75-.31 1.16l4 10c.08.2.22.36.4.48l8 5c.16.1.34.15.53.15h12c.23 0 .45-.08.62-.22l5-4c.13-.11.23-.24.3-.4l3-7.21c.15-.37.07-.79-.21-1.08z"/></svg>