<svg width="510" height="416" viewBox="0 0 510 416" fill="none" xmlns="http://www.w3.org/2000/svg">
<path d="M469.915 145.187C476.241 137.085 480 127.007 480 116.093C480 89.4207 457.57 67.7209 430 67.7209C413.661 67.7209 399.13 75.3424 390 87.1036C380.87 75.3424 366.339 67.7209 350 67.7209V62.8837C350 47.5749 339.44 34.6122 325 30.4386V9.67442C325 4.3322 320.522 0 315 0C309.478 0 305 4.3322 305 9.67442V30.4386C290.56 34.6122 280 47.574 280 62.8837V67.7209H250V62.8837C250 47.5749 239.44 34.6122 225 30.4386V9.67442C225 4.3322 220.522 0 215 0C209.478 0 205 4.3322 205 9.67442V30.4386C190.56 34.6122 180 47.574 180 62.8837V67.7209H150V62.8837C150 47.5749 139.44 34.6122 125 30.4386V9.67442C125 4.3322 120.522 0 115 0C109.478 0 105 4.3322 105 9.67442V30.4386C90.56 34.6122 80 47.5749 80 62.8837V67.7209C52.43 67.7209 30 89.4207 30 116.093C30 127.007 33.759 137.085 40.085 145.187C17.77 146.403 0 164.345 0 186.233V220.093C0 241.952 17.725 259.875 40 261.132V382.14C40 400.81 55.701 416 75 416C94.299 416 110 400.81 110 382.14V261.209H210.33C215.852 261.209 220.33 256.877 220.33 251.535C220.33 246.193 215.852 241.86 210.33 241.86C159.763 241.86 92.928 241.86 42.5 241.86C30.094 241.86 20 232.095 20 220.093V186.233C20 174.23 30.094 164.465 42.5 164.465H112C117.522 164.465 122 160.133 122 154.791C122 149.448 117.522 145.116 112 145.116H80C63.458 145.116 50 132.096 50 116.093C50 100.09 63.458 87.0698 80 87.0698H350C366.542 87.0698 380 100.09 380 116.093C380 132.096 366.542 145.116 350 145.116C327.212 145.116 336.361 145.116 312.448 145.116C306.926 145.116 302.448 149.448 302.448 154.791V178.859C302.448 180.877 303.1 182.844 304.313 184.484L347.499 242.925C351.129 247.836 350.441 255.889 346.028 260.159C342.443 263.625 337.548 263.329 334.456 259.402L288.531 201.03C284.608 196.043 282.448 189.846 282.448 183.581V154.827C282.448 154.815 282.45 154.803 282.45 154.79C282.45 149.448 277.972 145.115 272.45 145.115H152C146.478 145.115 142 149.448 142 154.79C142 160.132 146.478 164.464 152 164.464H262.448V183.581C262.448 194.055 266.059 204.414 272.617 212.748L295.521 241.86H250.331C244.809 241.86 240.331 246.193 240.331 251.535C240.331 256.877 244.809 261.209 250.331 261.209H310.744L318.543 271.122C328.942 284.339 347.998 285.622 360.171 273.841C363.861 270.272 366.513 265.907 368.101 261.209H400V382.14C400 400.81 415.701 416 435 416C454.299 416 470 400.81 470 382.14V261.132C492.275 259.875 510 241.951 510 220.093V186.233C510 164.345 492.23 146.403 469.915 145.187ZM90 261.209V382.14C90 390.141 83.271 396.651 75 396.651C66.729 396.651 60 390.141 60 382.14V261.209H90ZM100 67.7209V62.8837C100 54.882 106.729 48.3721 115 48.3721C123.271 48.3721 130 54.882 130 62.8837V67.7209H100ZM200 67.7209V62.8837C200 54.882 206.729 48.3721 215 48.3721C223.271 48.3721 230 54.882 230 62.8837V67.7209H200ZM300 67.7209V62.8837C300 54.882 306.729 48.3721 315 48.3721C323.271 48.3721 330 54.882 330 62.8837V67.7209H300ZM430 87.0698C446.542 87.0698 460 100.09 460 116.093C460 132.096 446.542 145.116 430 145.116C413.458 145.116 400 132.096 400 116.093C400 100.09 413.458 87.0698 430 87.0698ZM450 382.14C450 390.141 443.271 396.651 435 396.651C426.729 396.651 420 390.141 420 382.14V261.209H450V382.14ZM490 220.093C490 232.095 479.906 241.86 467.5 241.86C455.69 241.86 379.39 241.86 368.693 241.86C367.699 238.243 366.066 234.781 363.77 231.673L322.449 175.756V164.465H467.501C479.907 164.465 490.001 174.23 490.001 186.233V220.093H490Z" fill="black"/>
</svg>
