<svg width="482" height="428" viewBox="0 0 482 428" fill="none" xmlns="http://www.w3.org/2000/svg">
<path d="M293.044 302.168L289.955 352.13L264.866 420.26C250.229 420.26 240.038 405.722 245.029 391.963L260.037 348.862L266.346 253.467L240.708 262.695C235.229 264.667 231.206 279.397 230.138 285.122C226.421 305.059 207.595 318.481 187.535 315.494L208.038 245.454C209.088 240.326 212.523 236.008 217.283 233.83L281.923 201.685L317.739 7.50195" stroke="#474747" stroke-width="15" stroke-miterlimit="10" stroke-linecap="round" stroke-linejoin="round"/>
<path d="M434.671 7.50195L371.4 206.164L387.451 277.879C389.285 286.418 388.634 295.304 385.573 303.483L384.429 354.63L355.289 420.26" stroke="#474747" stroke-width="15" stroke-miterlimit="10" stroke-linecap="round" stroke-linejoin="round"/>
<path d="M120.271 7.50195L194.635 187.444L254.525 183.868" stroke="#474747" stroke-width="15" stroke-miterlimit="10" stroke-linecap="round" stroke-linejoin="round"/>
<path d="M7.50146 7.50195L134.419 244.807C141.718 258.143 155.061 267.082 170.171 268.761L196.509 271.687" stroke="#474747" stroke-width="15" stroke-miterlimit="10" stroke-linecap="round" stroke-linejoin="round"/>
<path d="M18.0315 286.16C14.4035 298.92 20.3665 311.985 20.3665 325.05C20.3665 338.115 14.4035 351.18 18.0315 363.94C20.5195 372.69 29.3245 378.815 39.4145 378.815H81.6795C90.3785 378.815 96.7485 371.484 94.6045 363.94C87.3475 338.42 87.3475 311.681 94.6045 286.16C96.7495 278.616 90.3795 271.285 81.6795 271.285H39.4155C29.3245 271.284 20.5195 277.41 18.0315 286.16Z" stroke="#474747" stroke-width="15" stroke-miterlimit="10" stroke-linecap="round" stroke-linejoin="round"/>
<path d="M47.1746 402.507L51.9276 411.323C54.0066 414.575 57.8736 416.581 62.0606 416.581C69.0276 416.581 74.4426 411.157 73.6606 404.963L70.8996 380.847" stroke="#474747" stroke-width="15" stroke-miterlimit="10" stroke-linecap="round" stroke-linejoin="round"/>
<path d="M47.1746 248.09L51.9276 238.775C54.0066 235.523 57.8736 233.517 62.0606 233.517C69.0276 233.517 74.4426 238.941 73.6606 245.135L70.8996 269.251" stroke="#474747" stroke-width="15" stroke-miterlimit="10" stroke-linecap="round" stroke-linejoin="round"/>
<path d="M126.072 286.16C122.444 298.92 128.407 311.985 128.407 325.05C128.407 338.115 122.444 351.18 126.072 363.94C128.56 372.69 137.365 378.815 147.455 378.815H189.72C198.419 378.815 204.789 371.484 202.645 363.94C200.754 357.288 199.355 350.553 198.45 343.779" stroke="#474747" stroke-width="15" stroke-miterlimit="10" stroke-linecap="round" stroke-linejoin="round"/>
<path d="M155.215 402.507L159.968 411.323C162.047 414.575 165.914 416.581 170.101 416.581C177.068 416.581 182.483 411.157 181.701 404.963L178.94 380.847" stroke="#474747" stroke-width="15" stroke-miterlimit="10" stroke-linecap="round" stroke-linejoin="round"/>
<path d="M405.32 375.138C408.967 377.469 413.414 378.815 418.144 378.815H460.409C469.108 378.815 475.478 371.484 473.334 363.94C466.077 338.42 466.077 311.681 473.334 286.16C475.479 278.616 469.109 271.285 460.409 271.285H416.145" stroke="#474747" stroke-width="15" stroke-miterlimit="10" stroke-linecap="round" stroke-linejoin="round"/>
<path d="M425.904 402.507L430.657 411.323C432.736 414.575 436.603 416.581 440.79 416.581C447.757 416.581 453.172 411.157 452.39 404.963L449.629 380.847" stroke="#474747" stroke-width="15" stroke-miterlimit="10" stroke-linecap="round" stroke-linejoin="round"/>
<path d="M425.904 248.09L430.657 238.775C432.736 235.523 436.603 233.517 440.79 233.517C447.757 233.517 453.172 238.941 452.39 245.135L449.629 269.251" stroke="#474747" stroke-width="15" stroke-miterlimit="10" stroke-linecap="round" stroke-linejoin="round"/>
<path d="M356.391 302.168L354.391 354.526L330.195 420.261" stroke="#474747" stroke-width="15" stroke-miterlimit="10" stroke-linecap="round" stroke-linejoin="round"/>
<path d="M326.445 302.168L323.477 352.13L298.324 420.261" stroke="#474747" stroke-width="15" stroke-miterlimit="10" stroke-linecap="round" stroke-linejoin="round"/>
</svg>
