<svg id="Layer_2" enable-background="new 0 0 512 512" viewBox="0 0 512 512" xmlns="http://www.w3.org/2000/svg"><g style="fill:none;stroke:#474747;stroke-linecap:round;stroke-linejoin:round;stroke-miterlimit:10;stroke-width:15"><path d="m305.309 341.399-3.089 49.962-25.089 68.13c-14.637 0-24.828-14.538-19.837-28.297l15.008-43.101 6.309-95.395-25.638 9.228c-5.479 1.972-9.502 16.702-10.57 22.427-3.717 19.937-22.543 33.359-42.603 30.372l20.503-70.04c1.05-5.128 4.485-9.446 9.245-11.624l64.64-32.145 35.816-194.183"/><path d="m446.935 46.733-63.271 198.662 16.051 71.715c1.834 8.539 1.183 17.425-1.878 25.604l-1.144 51.147-29.14 65.63"/><path d="m132.536 46.733 74.364 179.942 59.89-3.576"/><path d="m19.766 46.733 126.918 237.305c7.299 13.336 20.642 22.275 35.752 23.954l26.338 2.926"/><g><g><path d="m30.296 325.391c-3.628 12.76 2.335 25.825 2.335 38.89s-5.963 26.13-2.335 38.89c2.488 8.75 11.293 14.875 21.383 14.875h42.265c8.699 0 15.069-7.331 12.925-14.875-7.257-25.52-7.257-52.259 0-77.78 2.145-7.544-4.225-14.875-12.925-14.875h-42.264c-10.091-.001-18.896 6.125-21.384 14.875z"/><path d="m59.439 441.738 4.753 8.816c2.079 3.252 5.946 5.258 10.133 5.258 6.967 0 12.382-5.424 11.6-11.618l-2.761-24.116"/><path d="m59.439 287.321 4.753-9.315c2.079-3.252 5.946-5.258 10.133-5.258 6.967 0 12.382 5.424 11.6 11.618l-2.761 24.116"/></g><g><path d="m138.336 325.391c-3.628 12.76 2.335 25.825 2.335 38.89s-5.963 26.13-2.335 38.89c2.488 8.75 11.293 14.875 21.383 14.875h42.265c8.699 0 15.069-7.331 12.925-14.875-1.891-6.652-3.29-13.387-4.195-20.161"/><path d="m167.479 441.738 4.753 8.816c2.079 3.252 5.946 5.258 10.133 5.258 6.967 0 12.382-5.424 11.6-11.618l-2.761-24.116"/></g><g><path d="m417.584 414.369c3.647 2.331 8.094 3.677 12.824 3.677h42.265c8.699 0 15.069-7.331 12.925-14.875-7.257-25.52-7.257-52.259 0-77.78 2.145-7.544-4.225-14.875-12.925-14.875h-44.264"/><path d="m438.168 441.738 4.753 8.816c2.079 3.252 5.946 5.258 10.133 5.258 6.967 0 12.382-5.424 11.6-11.618l-2.761-24.116"/><path d="m438.168 287.321 4.753-9.315c2.079-3.252 5.946-5.258 10.133-5.258 6.967 0 12.382 5.424 11.6 11.618l-2.761 24.116"/></g></g><path d="m368.655 341.399-2 52.358-24.196 65.735"/><path d="m338.71 341.399-2.968 49.962-25.153 68.131"/></g></svg>