<svg id="Icon_Template" viewBox="0 0 216.03 216.03" xmlns="http://www.w3.org/2000/svg" data-name="Icon Template"><g fill="none" stroke="#010101" stroke-linejoin="round" stroke-width="2"><path d="m179.3 113.91c0 36.15-31 65.45-69.17 65.45s-69.13-29.3-69.13-65.45c0-1.78.07-3.53.22-5.27 2.85 29.59 32.63 52.87 68.95 52.87s66.1-23.28 69-52.87c.06 1.74.13 3.49.13 5.27z"/><path d="m179.3 104c0 1.56-.08 3.11-.22 4.64-2.85 29.59-32.63 52.87-69 52.87s-66.08-23.28-68.9-52.87c-.18-1.53-.18-3.08-.18-4.64 0-23.88 17.47-44.36 42.4-53.06-.15 2.28-.34 4.55-.58 6.65a41.12 41.12 0 0 1 -1.66 8.83c-1.57 4.22-5.16 12.38-8.26 21.48a103.34 103.34 0 0 0 -5 20 2.94 2.94 0 0 0 .94 2.59 2.63 2.63 0 0 0 .93.53c.91.28 2.38.55 3.45-1.57a20.81 20.81 0 0 0 1.62-6.37 7.34 7.34 0 0 1 .26-1.32c.21-.68.55-1.5 1-1.25 1 .56-1.6 6.39-3.09 10.53-.81 2.25-1 4.13-.23 5 2.37 3 5.14 1.53 5.71.29a24.66 24.66 0 0 0 1.51-6.22c.36-2.76 1.08-4.2 1.52-4.1 1 .23-3 10.82-3.67 13.8s-.12 5.12 3.51 5.69c1.72.27 3.74-1.4 4.55-8.78.26-2.36 1.46-5.22 1.7-4.64.53 1.34-2.33 9.32-3.46 13.52s2.51 5.17 4.22 5.24c2.26.09 3.46-1.92 4-8.75s2.29-8.72 2.12-4.89c-.28 6.16-7.27 15.37 1.91 16.64 4 .55 7.49-3.87 8.06-9.35a70.38 70.38 0 0 0 .13-9.28 34.43 34.43 0 0 1 1.41-12.55c.18-.69.35-1.4.48-2.13-1.89.35-2.93-.19-3.33-1.17-.53-1.3.3-2.88 3.65-4.25l.44-.16.09-1.34a5.05 5.05 0 0 1 -.55-.18c-3.39-1.27-4.26-2.82-3.77-4.14s1.81-1.78 4.5-1c0-4.59-.13-9.17-.09-13.2 0-1.46 0-2.85.12-4.14.33-5.14-1.9-10.6-1.69-15.34.05-1 .1-2 .17-3 .15-2.18.34-4.21.54-6.07 1.17-.05 2.35-.07 3.54-.07 1.57 0 3.13 0 4.67.13.21 1.86.4 3.89.54 6.07.07 1 .12 1.93.17 2.93.21 4.74-2 10.2-1.7 15.34.08 1.31.12 2.72.13 4.2 0 2.85 0 6-.08 9.2.14.26.29.54.44.84a16.1 16.1 0 0 1 1.29 4.28 16.23 16.23 0 0 1 1.18-4.32c1.5-3.3 3.1-4.07 4.39-3.49s1.76 2.3.27 5.6a14.58 14.58 0 0 1 -1.54 2.57l-.1.14a14.71 14.71 0 0 1 2.77-1.54c3.35-1.37 5-.82 5.58.48s-.29 2.88-3.65 4.25a15 15 0 0 1 -3.36.89 14.47 14.47 0 0 1 3.38.8c3.4 1.27 4.27 2.82 3.77 4.14s-2.17 1.91-5.56.64a15 15 0 0 1 -2.81-1.46 14.88 14.88 0 0 1 1.71 2.66c1.59 3.26 1.16 5-.11 5.6s-2.9-.1-4.48-3.36a16.13 16.13 0 0 1 -1.3-4.28 18.29 18.29 0 0 1 -.62 2.84c.08.34.16.68.25 1a34.43 34.43 0 0 1 1.48 12.55 70.38 70.38 0 0 0 .13 9.28c.57 5.48 4.06 9.9 8.06 9.35 9.18-1.27 2.19-10.48 1.91-16.64-.18-3.83 1.6-1.94 2.11 4.89s1.73 8.84 4 8.75c1.71-.07 5.35-1.05 4.23-5.24s-4-12.18-3.46-13.52c.23-.58 1.44 2.28 1.7 4.64.81 7.38 2.83 9 4.54 8.78 3.63-.57 4.18-2.59 3.51-5.69s-4.64-13.57-3.66-13.8c.44-.1 1.16 1.34 1.52 4.1a24.25 24.25 0 0 0 1.49 6.31c.57 1.24 3.33 2.73 5.71-.29.72-.91.57-2.79-.24-5-1.49-4.14-4.1-10-3.08-10.53.45-.25.79.57 1 1.25a9.63 9.63 0 0 1 .26 1.32 20.52 20.52 0 0 0 1.62 6.37c1.06 2.12 2.54 1.85 3.45 1.57a2.73 2.73 0 0 0 .93-.53 3 3 0 0 0 .94-2.59 100.32 100.32 0 0 0 -4.48-18.5c-3.21-9.71-7.12-18.57-8.78-23a39.7 39.7 0 0 1 -1.61-8.36c-.24-2.11-.43-4.39-.59-6.7 24.31 8.88 41.28 29.1 41.28 52.61z"/><path d="m172.05 102.1c0 27.38-27.72 49.58-61.92 49.58s-61.92-22.2-61.92-49.58c0-19.53 14.11-36.43 34.61-44.51a41.12 41.12 0 0 1 -1.66 8.83c-1.57 4.22-5.16 12.38-8.26 21.48a103.34 103.34 0 0 0 -5 20 2.94 2.94 0 0 0 .94 2.59 2.63 2.63 0 0 0 .93.53c.91.28 2.38.55 3.45-1.57a20.81 20.81 0 0 0 1.62-6.37 7.34 7.34 0 0 1 .26-1.32c.21-.68.55-1.5 1-1.25 1 .56-1.6 6.39-3.09 10.53-.81 2.25-1 4.13-.23 5 2.37 3 5.14 1.53 5.71.29a24.66 24.66 0 0 0 1.51-6.22c.36-2.76 1.08-4.2 1.52-4.1 1 .23-3 10.82-3.67 13.8s-.12 5.12 3.51 5.69c1.72.27 3.74-1.4 4.55-8.78.26-2.36 1.46-5.22 1.7-4.64.53 1.34-2.33 9.32-3.46 13.52s2.51 5.17 4.22 5.24c2.26.09 3.46-1.92 4-8.75s2.29-8.72 2.12-4.89c-.28 6.16-7.27 15.37 1.91 16.64 4 .55 7.49-3.87 8.06-9.35a70.38 70.38 0 0 0 .13-9.28 34.43 34.43 0 0 1 1.41-12.55c.18-.69.35-1.4.48-2.13-1.89.35-2.93-.19-3.33-1.17-.53-1.3.3-2.88 3.65-4.25l.44-.16.09-1.34a5.05 5.05 0 0 1 -.55-.18c-3.39-1.27-4.26-2.82-3.77-4.14s1.81-1.78 4.5-1c0-4.59-.13-9.17-.09-13.2 0-1.46 0-2.85.12-4.14.33-5.14-1.9-10.6-1.69-15.34.05-1 .1-2 .17-3 1.35-.07 2.71-.11 4.08-.11 1.76 0 3.5.06 5.21.17.07 1 .12 1.93.17 2.93.21 4.74-2 10.2-1.7 15.34.08 1.31.12 2.72.13 4.2 0 2.85 0 6-.08 9.2.14.26.29.54.44.84a16.1 16.1 0 0 1 1.29 4.28 16.23 16.23 0 0 1 1.18-4.32c1.5-3.3 3.1-4.07 4.39-3.49s1.76 2.3.27 5.6a14.58 14.58 0 0 1 -1.54 2.57l-.1.14a14.71 14.71 0 0 1 2.77-1.54c3.35-1.37 5-.82 5.58.48s-.29 2.88-3.65 4.25a15 15 0 0 1 -3.36.89 14.47 14.47 0 0 1 3.38.8c3.4 1.27 4.27 2.82 3.77 4.14s-2.17 1.91-5.56.64a15 15 0 0 1 -2.81-1.46 14.88 14.88 0 0 1 1.71 2.66c1.59 3.26 1.16 5-.11 5.6s-2.9-.1-4.48-3.36a16.13 16.13 0 0 1 -1.3-4.28 18.29 18.29 0 0 1 -.62 2.84c.08.34.16.68.25 1a34.43 34.43 0 0 1 1.48 12.55 70.38 70.38 0 0 0 .13 9.28c.57 5.48 4.06 9.9 8.06 9.35 9.18-1.27 2.19-10.48 1.91-16.64-.18-3.83 1.6-1.94 2.11 4.89s1.73 8.84 4 8.75c1.71-.07 5.35-1.05 4.23-5.24s-4-12.18-3.46-13.52c.23-.58 1.44 2.28 1.7 4.64.81 7.38 2.83 9 4.54 8.78 3.63-.57 4.18-2.59 3.51-5.69s-4.64-13.57-3.66-13.8c.44-.1 1.16 1.34 1.52 4.1a24.25 24.25 0 0 0 1.49 6.31c.57 1.24 3.33 2.73 5.71-.29.72-.91.57-2.79-.24-5-1.49-4.14-4.1-10-3.08-10.53.45-.25.79.57 1 1.25a9.63 9.63 0 0 1 .26 1.32 20.52 20.52 0 0 0 1.62 6.37c1.06 2.12 2.54 1.85 3.45 1.57a2.73 2.73 0 0 0 .93-.53 3 3 0 0 0 .94-2.59 100.32 100.32 0 0 0 -4.48-18.5c-3.21-9.71-7.12-18.57-8.78-23a39.7 39.7 0 0 1 -1.61-8.36c19.87 8.23 33.44 24.85 33.44 44.01z"/><path d="m158 109.63c0 18.1-19.25 33-43.76 34.46a7.92 7.92 0 0 0 -3.14-5.24 9.47 9.47 0 0 0 -7.07-2.28c-.25 0-.5 0-.76.05v.06a3.7 3.7 0 0 1 .67 2.43 15.64 15.64 0 0 0 0 2.65 4.66 4.66 0 0 0 1.06 2.24c-24-1.84-42.75-16.54-42.75-34.39a25.56 25.56 0 0 1 1.39-8.31s0 0 0-.06l.27.27a2.57 2.57 0 0 1 .62.57 13.61 13.61 0 0 0 .83-4.79 34 34 0 0 1 7.54-9.39 103.34 103.34 0 0 0 -5 20 2.94 2.94 0 0 0 .94 2.59 2.63 2.63 0 0 0 .93.53c.91.28 2.38.55 3.45-1.57a20.81 20.81 0 0 0 1.62-6.37 7.34 7.34 0 0 1 .26-1.32c.21-.68.55-1.5 1-1.25 1 .56-1.6 6.39-3.09 10.53-.81 2.25-1 4.13-.23 5 2.37 3 5.14 1.53 5.71.29a24.66 24.66 0 0 0 1.51-6.22c.36-2.76 1.08-4.2 1.52-4.1 1 .23-3 10.82-3.67 13.8s-.12 5.12 3.51 5.69c1.72.27 3.74-1.4 4.55-8.78.26-2.36 1.46-5.22 1.7-4.64.53 1.34-2.33 9.32-3.46 13.52s2.51 5.17 4.22 5.24c2.26.09 3.46-1.92 4-8.75s2.29-8.72 2.12-4.89c-.28 6.16-7.27 15.37 1.91 16.64 4 .55 7.49-3.87 8.06-9.35a70.38 70.38 0 0 0 .13-9.28 34.43 34.43 0 0 1 1.41-12.55c.18-.69.35-1.4.48-2.13-1.89.35-2.93-.19-3.33-1.17-.53-1.3.3-2.88 3.65-4.25l.44-.16.09-1.34a5.05 5.05 0 0 1 -.55-.18c-3.39-1.27-4.26-2.82-3.77-4.14s1.81-1.78 4.5-1c0-4.59-.13-9.17-.09-13.2h2.68c1.28 0 2.56 0 3.81.11 0 2.85 0 6-.08 9.2.14.26.29.54.44.84a16.1 16.1 0 0 1 1.29 4.28 16.23 16.23 0 0 1 1.18-4.32c1.5-3.3 3.1-4.07 4.39-3.49s1.76 2.3.27 5.6a14.58 14.58 0 0 1 -1.54 2.57l-.1.14a14.71 14.71 0 0 1 2.77-1.54c3.35-1.37 5-.82 5.58.48s-.29 2.88-3.65 4.25a15 15 0 0 1 -3.36.89 14.47 14.47 0 0 1 3.38.8c3.4 1.27 4.27 2.82 3.77 4.14s-2.17 1.91-5.56.64a15 15 0 0 1 -2.81-1.46 14.88 14.88 0 0 1 1.71 2.66c1.59 3.26 1.16 5-.11 5.6s-2.9-.1-4.48-3.36a16.13 16.13 0 0 1 -1.3-4.28 18.29 18.29 0 0 1 -.62 2.84c.08.34.16.68.25 1a34.43 34.43 0 0 1 1.48 12.55 70.38 70.38 0 0 0 .13 9.28c.57 5.48 4.06 9.9 8.06 9.35 9.18-1.27 2.19-10.48 1.91-16.64-.18-3.83 1.6-1.94 2.11 4.89s1.73 8.84 4 8.75c1.71-.07 5.35-1.05 4.23-5.24s-4-12.18-3.46-13.52c.23-.58 1.44 2.28 1.7 4.64.81 7.38 2.83 9 4.54 8.78 3.63-.57 4.18-2.59 3.51-5.69s-4.64-13.57-3.66-13.8c.44-.1 1.16 1.34 1.52 4.1a24.25 24.25 0 0 0 1.49 6.31c.57 1.24 3.33 2.73 5.71-.29.72-.91.57-2.79-.24-5-1.49-4.14-4.1-10-3.08-10.53.45-.25.79.57 1 1.25a9.63 9.63 0 0 1 .26 1.32 20.52 20.52 0 0 0 1.62 6.37c1.06 2.12 2.54 1.85 3.45 1.57a2.73 2.73 0 0 0 .93-.53 3 3 0 0 0 .94-2.59 100.32 100.32 0 0 0 -4.48-18.56c5.66 5.68 9 12.65 9 20.18z"/><path d="m152.55 110.54a2.73 2.73 0 0 1 -.93.53c-.91.28-2.39.55-3.45-1.57a20.52 20.52 0 0 1 -1.62-6.37 9.63 9.63 0 0 0 -.26-1.32c-.21-.68-.55-1.5-1-1.25-1 .56 1.59 6.39 3.08 10.53.81 2.25 1 4.13.24 5-2.38 3-5.14 1.53-5.71.29a24.25 24.25 0 0 1 -1.49-6.31c-.36-2.76-1.08-4.2-1.52-4.1-1 .23 3 10.82 3.66 13.8s.12 5.12-3.51 5.69c-1.71.27-3.73-1.4-4.54-8.78-.26-2.36-1.47-5.22-1.7-4.64-.54 1.34 2.33 9.32 3.46 13.52s-2.52 5.17-4.23 5.24c-2.25.09-3.46-1.92-4-8.75s-2.29-8.72-2.11-4.89c.28 6.16 7.27 15.37-1.91 16.64-4 .55-7.49-3.87-8.06-9.35a70.38 70.38 0 0 1 -.13-9.28 34.43 34.43 0 0 0 -1.48-12.55c-.09-.34-.17-.68-.25-1a18.29 18.29 0 0 0 .62-2.84 16.13 16.13 0 0 0 1.3 4.28c1.58 3.26 3.21 4 4.48 3.36s1.7-2.34.11-5.6a14.88 14.88 0 0 0 -1.71-2.66 15 15 0 0 0 2.81 1.46c3.39 1.27 5.06.68 5.56-.64s-.37-2.87-3.77-4.14a14.47 14.47 0 0 0 -3.38-.8 15 15 0 0 0 3.36-.89c3.36-1.37 4.18-2.94 3.65-4.25s-2.23-1.85-5.58-.48a14.71 14.71 0 0 0 -2.75 1.58l.1-.14a14.58 14.58 0 0 0 1.54-2.57c1.49-3.3 1-5-.27-5.6s-2.89.19-4.39 3.49a16.23 16.23 0 0 0 -1.18 4.32 16.1 16.1 0 0 0 -1.29-4.28c-.15-.3-.3-.58-.44-.84 0-3.22.1-6.35.08-9.2 0-1.48 0-2.89-.13-4.2-.33-5.14 1.91-10.6 1.7-15.34-.05-1-.1-2-.17-2.93-.14-2.18-.33-4.21-.54-6.07-.53-4.74-1.16-8.31-1.48-10h24.08c.08 3.67.25 9.25.62 14.7.16 2.31.35 4.59.59 6.7a39.7 39.7 0 0 0 1.61 8.36c1.66 4.46 5.57 13.32 8.78 23a100.32 100.32 0 0 1 4.49 18.5 3 3 0 0 1 -.94 2.64z"/><path d="m107.57 71c-.08 1.29-.12 2.68-.12 4.14 0 4 .13 8.61.09 13.2-2.69-.79-4.06-.19-4.5 1s.38 2.87 3.77 4.14a5.05 5.05 0 0 0 .55.18l-.09 1.34-.44.16c-3.35 1.37-4.18 3-3.65 4.25.4 1 1.44 1.52 3.33 1.17-.13.73-.3 1.44-.48 2.13a34.43 34.43 0 0 0 -1.48 12.55 70.38 70.38 0 0 1 -.13 9.28c-.57 5.48-4.06 9.9-8.06 9.35-9.18-1.27-2.19-10.48-1.91-16.64.17-3.83-1.6-1.94-2.12 4.89s-1.72 8.84-4 8.75c-1.71-.07-5.35-1.05-4.22-5.24s4-12.18 3.46-13.52c-.24-.58-1.44 2.28-1.7 4.64-.81 7.38-2.83 9-4.55 8.78-3.63-.57-4.17-2.59-3.51-5.69s4.65-13.57 3.67-13.8c-.44-.1-1.16 1.34-1.52 4.1a24.66 24.66 0 0 1 -1.49 6.31c-.57 1.24-3.34 2.73-5.71-.29-.72-.91-.58-2.79.23-5 1.49-4.14 4.11-10 3.09-10.53-.45-.25-.79.57-1 1.25a7.34 7.34 0 0 0 -.26 1.32 20.81 20.81 0 0 1 -1.62 6.37c-1.07 2.12-2.54 1.85-3.45 1.57a2.63 2.63 0 0 1 -.93-.53 2.94 2.94 0 0 1 -.92-2.63 103.34 103.34 0 0 1 5-20c3.1-9.1 6.69-17.26 8.26-21.48a41.12 41.12 0 0 0 1.66-8.83c.24-2.1.43-4.37.58-6.65.36-5.31.52-10.7.59-14.28h24.08c-.32 1.64-1 5.19-1.48 9.9-.2 1.86-.39 3.89-.54 6.07-.07 1-.12 2-.17 3-.21 4.63 2.02 10.09 1.69 15.27z"/><path d="m158.36 100.13c1.1 3.34 4.39 5.4 6.49 8.21a12.88 12.88 0 0 0 -3-19 15.39 15.39 0 0 0 -3.21 5 8.91 8.91 0 0 0 -.28 5.79z"/><path d="m164.85 108.34a12.88 12.88 0 0 0 -3-19c-1.36 1.46.9 16.19 3 19z"/><path d="m64 101.53a1.12 1.12 0 0 0 -.29-.21 9.05 9.05 0 0 0 -3.05-1c-1.45-.28-3-.69-3.87-1.91a4 4 0 0 1 -.37-3.34 11.73 11.73 0 0 1 1.58-3.07l1.35-2.06c-.43.65-.64 6.34 4.36 11.33z"/><path d="m65.41 97.31a13.61 13.61 0 0 1 -.83 4.79 2.57 2.57 0 0 0 -.62-.57l-.27-.27c-5-5-4.79-10.68-4.36-11.33 2 1 4.08 2.16 5.2 4.09a6.78 6.78 0 0 1 .88 3.29z"/><path d="m64.58 102.1c-.22-.19-.42-.38-.62-.57a2.57 2.57 0 0 1 .62.57z"/><path d="m104 136.57c-.25 0-.5 0-.76.05a1.87 1.87 0 0 1 .76-.05z"/><path d="m114.23 145.68a2 2 0 0 1 -.42 1.16c-.53.58-1.46.45-2.23.28a16.66 16.66 0 0 1 -4.7-1.56 6.56 6.56 0 0 1 -1.88-1.56 4.66 4.66 0 0 1 -1.1-2.26 15.64 15.64 0 0 1 0-2.65 3.7 3.7 0 0 0 -.67-2.43c.72.71 5.91 5.15 8.88 7.51a9 9 0 0 0 2.12 1.51z"/><path d="m114.24 145.53a.76.76 0 0 1 0 .15 9 9 0 0 1 -2.08-1.49c-3-2.36-8.16-6.8-8.88-7.51v-.06c.26 0 .51 0 .76-.05a9.47 9.47 0 0 1 7.07 2.28 7.92 7.92 0 0 1 3.14 5.24 6.92 6.92 0 0 1 -.01 1.44z"/><path d="m128.28 99c-.5 1.32-2.17 1.91-5.56.64a15 15 0 0 1 -2.81-1.46 14.88 14.88 0 0 1 1.71 2.66c1.59 3.26 1.16 5-.11 5.6s-2.9-.1-4.48-3.36a16.13 16.13 0 0 1 -1.3-4.28 18.29 18.29 0 0 1 -.62 2.84 13.71 13.71 0 0 1 -.56 1.48c-1.49 3.3-3.1 4.07-4.38 3.49s-1.77-2.29-.28-5.59a15.28 15.28 0 0 1 1.64-2.71l-.34.23a13.53 13.53 0 0 1 -2.43 1.3 11.54 11.54 0 0 1 -2.24.69c-1.89.35-2.93-.19-3.33-1.17-.53-1.3.3-2.88 3.65-4.25l.44-.16a16.31 16.31 0 0 1 2.93-.73 15.29 15.29 0 0 1 -2.84-.61 5.05 5.05 0 0 1 -.55-.18c-3.39-1.27-4.26-2.82-3.77-4.14s1.81-1.78 4.5-1c.33.09.69.21 1.07.35a14.67 14.67 0 0 1 2.81 1.45 14.39 14.39 0 0 1 -1.72-2.66c-1.58-3.26-1.15-5 .12-5.6s2.59 0 4 2.52c.14.26.29.54.44.84a16.1 16.1 0 0 1 1.29 4.28 16.23 16.23 0 0 1 1.18-4.32c1.5-3.3 3.1-4.07 4.39-3.49s1.76 2.3.27 5.6a14.58 14.58 0 0 1 -1.54 2.57l-.1.14a14.71 14.71 0 0 1 2.77-1.54c3.35-1.37 5-.82 5.58.48s-.29 2.88-3.65 4.25a15 15 0 0 1 -3.36.89 14.47 14.47 0 0 1 3.38.8c3.43 1.28 4.3 2.83 3.8 4.15z"/><path d="m118.21 94.15a2.55 2.55 0 1 1 -2.54-2.54 2.54 2.54 0 0 1 2.54 2.54z"/><path d="m41 81.5a3.28 3.28 0 1 0 -3.28 3.28 3.28 3.28 0 0 0 3.28-3.28z"/><path d="m181.63 78.28a2.32 2.32 0 1 0 -2.32 2.32 2.32 2.32 0 0 0 2.32-2.32z"/><path d="m50.54 62.87a2.32 2.32 0 1 0 -2.32 2.32 2.32 2.32 0 0 0 2.32-2.32z"/><path d="m163.17 53.5h6.34v6.34h-6.34z" transform="matrix(.707 -.707 .707 .707 8.65 134.22)"/><path d="m73.42 48.62a1.09 1.09 0 0 0 -.78-.3h-3.54v-3.75a1.22 1.22 0 0 0 -.33-.88 1.18 1.18 0 0 0 -.9-.35 1.25 1.25 0 0 0 -.91.35 1.16 1.16 0 0 0 -.37.9v3.73h-3.47a1.12 1.12 0 0 0 -.78.29 1 1 0 0 0 -.31.76 1.06 1.06 0 0 0 1.09 1.09h3.47v3.47a1.2 1.2 0 0 0 .36.89 1.37 1.37 0 0 0 1.81 0 1.22 1.22 0 0 0 .34-.89v-3.47h3.54a1.09 1.09 0 0 0 .78-.3 1.09 1.09 0 0 0 0-1.54z"/></g></svg>