<svg id="Capa_1" enable-background="new 0 0 512 512" height="512" viewBox="0 0 512 512" width="512" xmlns="http://www.w3.org/2000/svg"><path d="m181.88 56.438c9.466-4.425 19.637-7.15 30.048-8.05-8.597-15.434-28.078-20.977-43.512-12.38-14.275 7.951-20.263 25.382-13.888 40.427 7.746-8.364 17.033-15.153 27.352-19.997z"/><path d="m322.57 152.581c2.14-1.533 3.765-3.68 4.659-6.156 1.181-3.222 1.015-6.784-.46-9.882l-6-12.73c-1.445-3.124-4.088-5.534-7.332-6.685-1.932-.696-4.001-.928-6.039-.678l13.418 31.8c.608 1.421 1.189 2.871 1.754 4.331z"/><path d="m146.887 137.345c.034 11.508 2.847 22.838 8.2 33.025l3.273 6.228 19.785 38.047c1.899 3.653 3.985 7.206 6.249 10.644l.086.132c10.241 15.871 23.855 29.29 39.873 39.3l6.85-.685c.265-.026.53-.04.8-.04h63.725c1.793-1.662 3.455-3.46 4.972-5.378 6.852-8.791 11.487-19.102 13.514-30.062.806-4.334 1.356-8.712 1.647-13.111 0-.034 0-.068.008-.1 1.37-16.572-.498-33.252-5.5-49.11-1.202-3.981-2.628-7.891-4.273-11.71l-16.666-39.5-2.786-6.528c-4.455-10.6-11.374-19.985-20.181-27.376l-2.1 5.815-15.053-5.425 3.427-9.506c-4.785-2.48-9.84-4.401-15.065-5.725l-5.911 23.66-15.522-3.88 5.487-21.948c-8.706-.316-17.396.978-25.632 3.819l11.312 24.058-14.478 6.811-11.313-24.063c-7.729 4.722-14.498 10.86-19.953 18.09l18.776 12.517-8.876 13.312-18.1-12.069c-2.107 4.611-3.722 9.432-4.819 14.382l9.489 3.42-5.432 15.052zm120.461 97.769c-7.703 3.626-16.075 5.614-24.586 5.84l-1.314.029-.357-16 1.309-.029c10.257-.299 20.116-4.032 28-10.6l10.248 12.287c-4.054 3.38-8.523 6.228-13.3 8.473zm25.352-74.014c-10.889 2.243-21.089 7.042-29.759 14l-10.023-12.471c10.656-8.547 23.189-14.44 36.569-17.194zm-3.264-36.772-4.823 15.256c-14.313-4.518-28.543 2.216-34.613 16.388l-14.709-6.3c9.283-21.666 32.05-32.325 54.143-25.34zm-49.242 37.387 20.863 44.374-14.483 6.811-20.862-44.374zm-48.863 45.967-10.023-12.471c10.656-8.547 23.19-14.441 36.57-17.194l3.209 15.675c-10.888 2.241-21.087 7.038-29.758 13.994zm28.23-50.615-4.532 15.346c-14.782-4.365-29.049 2.3-34.695 16.2l-14.826-6.013c8.715-21.467 31.444-32.2 54.051-25.529z"/><path d="m148.011 212.535 3.071 6.548c1.458 3.141 4.113 5.567 7.373 6.735 2.481.894 5.178.999 7.721.3-.813-1.451-1.551-2.82-2.2-4.049l-1.24-2.394-14.736-28.323c-4.118 3.888-5.289 9.972-2.909 15.111z"/><path d="m345.5 305.007-103.529 14.793-109.138 40.2h65.844l46.748-15.895c1.055-.357 2.173-.491 3.282-.394l183.647 16.289h16.446c17.2 0 31.2-14.355 31.2-32 0-16.38-12-30.054-27.916-31.808-1.117-.13-2.24-.194-3.364-.192h-1.247l-101.973 9.009z"/><path d="m251.255 360-2.279-.202-.595.202z"/><path d="m320 264c1.731 0 3.415.562 4.8 1.6l30.033 22.523 84-7.422-18.983-30.471c-10.07-16.18-28.5-26.23-48.09-26.23h-40.66c-.32 2.577-.706 5.082-1.163 7.49-2.157 11.648-6.715 22.719-13.382 32.51z"/><path d="m61.189 359.99h25.384l150.661-55.5c.529-.194 1.077-.332 1.635-.413l92.879-13.266-14.414-10.811h-84.934l-135.93 13.591c-15.144 1.517-30.072 4.71-44.512 9.52-15.293 5.096-23.56 21.625-18.463 36.919 3.972 11.921 15.128 19.961 27.694 19.96z"/><path d="m81.163 465.57c-.474 0-.95-.024-1.426-.043-2.686 2.162-3.563 5.87-2.132 9.007 2.075 4.492 7.761 6.666 12.662 4.792 4.031-1.524 7.375-4.457 9.411-8.255.076-.196.159-.388.25-.575 1.63-3.37 2.028-7.205 1.124-10.838-5.907 3.877-12.823 5.933-19.889 5.912z"/><path d="m200.38 267.122c-9.597-7.955-18.132-17.112-25.393-27.244-14.467 6.723-31.646.458-38.388-14l-.77-1.642c-18.052 1.628-34.349 11.643-43.332 26.933l-17.497 29.425c6.581-1.27 13.215-2.257 19.878-2.923z"/><path d="m108.21 409.391c-4.465-2.6-10.408-1.384-12.978 2.659-2.325 3.644-3.097 8.066-2.145 12.283.922 3.948 3.137 7.475 6.292 10.02 2.523-6.683 7.137-12.372 13.156-16.219.582-3.54-1.158-7.057-4.325-8.743z"/><path d="m135.353 445.308c4.051-.116 7.584-2.62 8.449-6.233.467-2.015.103-4.133-1.009-5.877-1.379-2.175-3.575-3.704-6.093-4.243-8.972-2.075-17.883 1.985-21.588 9.282 2.947.221 6.946.836 11.41 2.502 3.699 1.381 6.65 3.085 8.831 4.569z"/><path d="m116.202 454.368c1.965 6.601 1.746 13.66-.622 20.127 1.733 3.591 5.489 5.753 9.465 5.449 2.509-.109 4.863-1.241 6.514-3.134 1.377-1.602 2.041-3.697 1.838-5.8-.537-4.6-2.791-8.828-6.311-11.838-1.113-.973-2.826-2.252-5.162-3.27-2.252-.981-4.281-1.37-5.722-1.534z"/><path d="m464 376h-416c-8.832.01-15.99 7.168-16 16v32c.01 8.832 7.168 15.99 16 16h.137c-.845-7.833 2.313-15.565 8.4-20.567.186-.184.381-.359.584-.524 5.722-4.586 13.134-6.505 20.363-5.27.824-3.605 2.259-7.042 4.243-10.162 7.171-11.286 22.665-14.831 34.544-7.909 6.308 3.647 10.698 9.878 12.009 17.046 4.021-.415 8.084-.162 12.022.75 6.678 1.489 12.476 5.601 16.09 11.41 2.84 4.539 4.056 9.906 3.45 15.226h304.158c8.832-.01 15.99-7.168 16-16v-32c-.01-8.832-7.168-15.99-16-16z"/><path d="m90.186 447.491c-5.602-4.259-9.766-10.131-11.933-16.827-3.355-2.046-7.613-1.865-10.783.458-.166.16-.339.314-.519.458-1.678 1.306-2.738 3.25-2.929 5.367-.141 2.012.542 3.994 1.891 5.493.057.059.112.119.167.179l.8.88c3.051 3.332 7.214 5.435 11.706 5.913 3.971.503 8.003-.165 11.6-1.921z"/></svg>