<svg id="Layer_1" height="512" viewBox="0 0 64 64" width="512" xmlns="http://www.w3.org/2000/svg" data-name="Layer 1"><path d="m45.807 45.47c-7.144 0-13.02-1.063-13.738-2.426.09.306.266.86.484 1.531a47.769 47.769 0 0 0 -10.634.775c-.215-.006-.441-.006-.69 0a9.482 9.482 0 0 1 -3.539-.614c1.766-.185 3.863-.719 5.077-2.15 2.377-2.8-.455-3.774-2.053-5.668-1.478-1.752-2.8-2.09-3.566.486a4.631 4.631 0 0 0 -.233-1.14c-.053-.149-.111-.274-.168-.4.492-.165.984-.328 1.468-.488l.987-.327c2.343 2.391 6.911 4.1 12.765 4.1a33.56 33.56 0 0 0 6.221-.6 32.024 32.024 0 0 0 4.9-1.284 2.946 2.946 0 0 1 -.254-1.191 3.086 3.086 0 0 1 .191-.925 27.693 27.693 0 0 1 -5.212 1.436c-9.938 1.879-16.926-1.3-18.148-4.318-.471-1.163-.019-2.208 1.343-3.1a19.092 19.092 0 0 1 2.133-1.21c.005 0 .008-.008.013-.01a47.925 47.925 0 0 0 11.816 1.538 30.131 30.131 0 0 0 8.446-1.093c.478.264.956.541 1.419.842a4.087 4.087 0 0 1 1.3 1.33 3.041 3.041 0 0 1 .329.808l.16.229a22.181 22.181 0 0 1 1.389 2.249 2.921 2.921 0 0 0 .19-.343 4.165 4.165 0 0 0 -.345-3.958 6.1 6.1 0 0 0 -1.935-1.992c-.035-.023-.072-.041-.108-.064a12.491 12.491 0 0 0 2.346-1.388c2.08-1.6 2.958-3.266 2.609-4.948-.75-3.618-7.01-5.237-7.1-5.261l-.622-.156a3.416 3.416 0 0 0 1.2-1.724 3.627 3.627 0 0 0 -1.236-3.467 1.017 1.017 0 0 0 -.089-.069 15.691 15.691 0 0 0 -17.423-.32 3.166 3.166 0 0 0 -1.475 3.964 4.41 4.41 0 0 0 1.027 1.468c-1.371.365-2.816.8-4.392 1.347-1.021.371-6.123 2.371-6.224 5.344-.052 1.549 1.14 2.84 3.644 3.946.735.325 1.552.626 2.4.914-.191.117-.389.229-.573.35-2.143 1.411-2.926 3.477-2.1 5.525.045.112.107.222.161.332l-.387.128c-.829.274-1.65.546-2.453.821-1.178-.228-2.63.641-4.154.914-1.562.28-2.5.833-2.314 1.794a6.436 6.436 0 0 0 -3.192 3.321c-1.606.907-.784 3.044-.953 5.038-.209 2.47.614 3.644 3.473 1.822a7.434 7.434 0 0 1 1.045-.548c.269.185.559.367.868.543a6.169 6.169 0 0 0 -1.863 3.166c-.657 3.615 2.281 3.041 4.612 3.882s3.679.35 2.659-2.883a8.3 8.3 0 0 1 -.356-2.74c.051 0 .1.006.15.006.076 0 .158-.012.236-.014a6.938 6.938 0 0 0 3.038 3.519c3.321 1.571 3.527-1.416 4.944-3.45a4.789 4.789 0 0 0 .81-1.649 42.974 42.974 0 0 1 9.089-.389c.747 2.266 1.558 4.69 1.558 4.69a7.259 7.259 0 0 0 6.854 4.748h8.339a7.259 7.259 0 0 0 6.854-4.748s2.287-6.83 2.715-8.278c-.713 1.364-6.589 2.427-13.733 2.427zm-19.207-33.639a13.65 13.65 0 0 1 7.407-2.157 13.5 13.5 0 0 1 7.709 2.409c.143.143.761.808.6 1.409-.1.352-.759 1.568-5.254 2.418-6.071 1.148-10.464-.77-11.18-2.536-.082-.209-.342-.844.718-1.543zm-7.71 12.569c-1.579-.7-2.473-1.443-2.452-2.048.04-1.2 2.952-2.82 4.891-3.526a56.3 56.3 0 0 1 6-1.736 14.979 14.979 0 0 0 6.1 1.174 21.577 21.577 0 0 0 4.007-.388 21.582 21.582 0 0 0 2.923-.748.939.939 0 0 0 .091.041c.888.2 1.792.432 2.764.677 1.6.4 5.227 1.9 5.6 3.72.224 1.081-.894 2.2-1.871 2.957-5.699 4.388-19.759 3.536-28.053-.123zm-6.035 19.886a1.523 1.523 0 1 1 1.523 1.523 1.523 1.523 0 0 1 -1.523-1.523zm-3.11-5.606c.116.117.237.236.372.36a9.463 9.463 0 0 1 2.065 2.928 8.769 8.769 0 0 0 -4.168-2.028 7.655 7.655 0 0 1 1.731-1.26zm38.485-4.406a34.935 34.935 0 0 1 3.609 1.642c3.668 1.949 4.35 4.132 4.27 5.634 1.094.355 1.741.768 1.741 1.213 0 .755-1.815 1.425-4.628 1.857l-.288-3.375c-.017-.136-.058-.263-.088-.395.44.062.851.132 1.244.205-.2-1.543-2.005-2.745-3.189-3.373-.7-.37-1.426-.718-2.18-1.046a2.966 2.966 0 0 0 .057-.561 4.651 4.651 0 0 0 -.548-1.801zm-2.423 3.372a1.572 1.572 0 0 1 -1.57-1.57 9.731 9.731 0 0 1 1.57-3.187 9.728 9.728 0 0 1 1.57 3.187 1.572 1.572 0 0 1 -1.57 1.57zm-7.036 3.2c-.032.14-.075.275-.093.42l-.283 3.35c-2.815-.432-4.631-1.1-4.631-1.858 0-.783 1.978-1.479 5.007-1.908zm4.223-1.8h5.626a2.753 2.753 0 0 1 2.726 2.4l.2 3.173a53.757 53.757 0 0 1 -5.742.291 53.863 53.863 0 0 1 -5.74-.291l.205-3.215a2.745 2.745 0 0 1 2.725-2.359z"/></svg>