<svg id="Layer_1" enable-background="new 0 0 512 512" viewBox="0 0 512 512" xmlns="http://www.w3.org/2000/svg"><path clip-rule="evenodd" d="m363.88 33.2v63.15h44.75v-63.15c0-3.21-2.61-5.83-5.84-5.83h-33.11c-3.18 0-5.8 2.62-5.8 5.83zm-39.97 452.17-145.73-118.37-32.05 5.56c-30.87 5.35-53.04 29.95-55.2 61.19l-3.59 51.62zm19.07-118.78 34.42 5.97c30.83 5.35 53.04 29.95 55.2 61.19l3.55 51.62h-93.22l-73.08-59.37zm-81.14-36.94c12.21 0 25.27-4.04 37.52-11.05 1.31 19.43 12.82 35.85 29.81 43.74l-68.84 55.94-67.86-55.12c18.01-7.55 30.34-24.48 31.64-44.65 12.34 7.06 25.44 11.14 37.73 11.14zm-146.99-233.29h44.79v-63.16c0-3.21-2.61-5.83-5.84-5.83h-33.11c-3.23 0-5.84 2.62-5.84 5.83zm44.79 37.61v-25.61h-44.79v25.95c0 64.05 26.3 96.54 66.39 138.81 1.88 1.96 4.78 2.22 6.98.64l.12-.09c2.08-1.52 2.65-4.35 1.39-6.58l-42.38-72.96c-.53-.92-.82-1.96-.82-3.01v-20.96c0-3.32 2.69-6 6-6s6 2.69 6 6v19.34l12 20.7c2.2-2.11 3.55-5.06 3.55-8.24v-33.07c0-7.66-3.02-14.94-8.53-20.49-3.87-3.92-5.91-8.91-5.91-14.43zm14.05 5.53c-1.39-1.58-2.04-3.35-2.04-5.53v-6.03c3.18-28.77 24.66-46.63 56.1-46.63 4.98 0 9.88.56 14.66 1.62-27.2 11.64-52.35 32.06-68.72 56.57zm162.14 100.16-12.41 21.4c-3.51 6.02-2.94 13.31.98 18.64-15.64 22.54-40.79 37.95-62.55 37.95-21.8 0-47-15.47-62.68-38.09 3.88-5.32 4.41-12.54.94-18.5l-12.33-21.19c10.78-32.52 39.57-54.96 73.95-67.48 38.01 13.81 64.18 37.58 74.1 67.27zm2.41-79.01c-19.15-.74-39.28 1.31-58.43 6.18 30.3 13.91 52.31 34.51 63.7 59.61l3.35-5.72c-5.84-4.34-9.43-11.25-9.43-18.76v-33.07c-.01-2.8.28-5.56.81-8.24zm9.39-18.75c-1.92 2.17-3.55 4.5-4.94 6.95-63.17-3.66-137.48 22.05-162.59 77.77l-3.43-5.9c5.8-4.34 9.43-11.25 9.43-18.76v-33.07c0-6.75-1.67-13.27-4.78-19.12 20.25-32.77 57.57-58.34 93.91-64.09 17.6-2.79 34.83 1.64 48.51 12.48 13.36 10.6 21.93 26.43 23.89 43.74zm61-33.54h-44.75v25.61c0 5.52-2.08 10.51-5.96 14.43-5.47 5.55-8.49 12.83-8.49 20.49v33.07c0 3.18 1.31 6.13 3.51 8.24l12.05-20.7v-19.34c0-3.32 2.69-6 6-6s6 2.69 6 6v20.96c0 1.06-.29 2.09-.82 3.01l-42.38 72.96c-1.31 2.23-.74 5.05 1.39 6.57l.12.1c2.16 1.58 5.1 1.31 6.94-.64 40.14-42.27 66.39-74.76 66.39-138.81z" fill-rule="evenodd"/></svg>