<svg width="496" height="498" viewBox="0 0 496 498" fill="none" xmlns="http://www.w3.org/2000/svg">
<path d="M416 402H400C386.936 402 375.712 409.896 370.744 421.144C361.6 408.696 356.024 386.168 353.512 352.024C437.12 316.92 496 234.216 496 138C496 96.32 447.744 68.952 352.728 56.584C347.32 48.632 340.672 41.504 332.808 35.6L328 32L323.2 35.6C316.848 40.36 311.288 45.928 306.52 52.056C280.456 50.288 258.84 50 248 50C245.808 50 243.088 50.016 240 50.048V50H216C206.808 50 197.968 51.48 189.632 54.104C184.952 33.928 173.48 16.112 156.808 3.6L152 0L147.2 3.6C131.384 15.464 120.176 32.064 115.072 50.952C111.424 50.384 107.736 50 104 50H64V58C64 63.28 64.552 68.424 65.448 73.448C22.04 88.376 0 110.064 0 138C0 234.216 58.88 316.92 142.488 352.016C139.976 386.16 134.392 408.688 125.256 421.136C120.288 409.896 109.064 402 96 402H80C53.528 402 32 423.528 32 450C32 476.472 53.528 498 80 498C165.28 498 184.096 425.216 189.512 366.032C200.752 368.12 212.264 369.4 224 369.8V408.248C219.128 412.64 216 418.944 216 426.008V474.008C216 487.24 226.768 498.008 240 498.008H256C269.232 498.008 280 487.24 280 474.008V426.008C280 418.944 276.872 412.648 272 408.248V369.8C283.736 369.4 295.248 368.12 306.488 366.032C311.904 425.216 330.72 498 416 498C442.472 498 464 476.472 464 450C464 423.528 442.472 402 416 402ZM328 52.336C338.392 61.616 345.808 73.656 349.456 87.096C341.528 90.256 334.28 94.76 328.024 100.36C321.672 94.672 314.384 90.224 306.544 87.112C310.184 73.656 317.592 61.616 328 52.336ZM396.32 112.584C436.936 122.352 448 133.336 448 138C448 151.96 379.312 178 248 178C116.688 178 48 151.96 48 138C48 133.968 56.224 125.04 86.16 116.192C102.296 134.424 125.792 146 152 146C186.032 146 215.552 126.552 230.184 98.216C238.88 98.048 247.696 98.008 256.488 98.088C260.52 133.992 291.032 162 328 162C359.808 162 386.816 141.24 396.32 112.584ZM317.352 112.28C311.32 120.728 307.072 130.528 305.16 141.12C287.968 133.408 275.336 117.272 272.576 97.992H280C293.84 98 307.136 103.144 317.352 112.28ZM328 146C325.504 146 323.048 145.832 320.64 145.52C324.744 118.648 348 98 376 98H383.432C379.536 125.104 356.168 146 328 146ZM296.864 67.48C294.472 72.408 292.528 77.576 291.08 82.92C287.432 82.352 283.736 82 280 82H256V82.088C249.504 82.032 243.04 82.048 236.56 82.128C238.04 76.944 239.088 71.584 239.592 66.064C242.856 66.016 245.72 66 248 66C257.424 66 275.16 66.224 296.864 67.48ZM223.552 66C219.56 101.952 189 130 152 130C149.464 130 146.952 129.864 144.488 129.608C148.656 93.848 179.136 66 216 66H223.552ZM152 20.336C163.744 30.824 171.664 44.824 174.664 60.408C168.176 63.88 162.136 68.08 156.744 73C149.384 65.08 140.384 59.08 130.528 55.16C134.168 41.688 141.584 29.632 152 20.336ZM104 66C119.96 66 135.176 72.832 145.904 84.848C136.928 96.656 130.864 110.784 128.784 126.16C102.864 117.312 83.552 94.056 80.44 65.992H104V66ZM69.696 88.872C71.496 93.648 73.68 98.216 76.24 102.552C46.952 112.04 32 123.928 32 138C32 179.088 161.168 194 248 194C334.832 194 464 179.088 464 138C464 120.928 442.336 107.128 399.648 96.928C399.872 94.648 400 92.336 400 90V82H376C372.224 82 368.536 82.36 364.92 82.928C364.096 79.888 363.088 76.912 361.952 74C411.704 81.536 480 98.992 480 138C480 191.144 355.024 210 248 210C140.976 210 16 191.144 16 138C16 117.776 34.056 101.264 69.696 88.872ZM80 482C62.352 482 48 467.648 48 450C48 432.352 62.352 418 80 418H96C104.824 418 112 425.176 112 434C112 442.824 104.824 450 96 450C87.176 450 80 442.824 80 434H64C64 451.648 78.352 466 96 466C110.976 466 123.48 455.624 126.952 441.704C144.448 429.592 154.24 403.304 158.088 357.856C163.224 359.584 168.408 361.192 173.688 362.568C166.312 446.088 138.12 482 80 482ZM264 474C264 478.408 260.416 482 256 482H240C235.584 482 232 478.408 232 474V426C232 421.592 235.584 418 240 418H256C260.416 418 264 421.592 264 426V474ZM240 402V290H256V402H240ZM256 274H240C231.176 274 224 281.176 224 290V353.8C202.896 353.024 182.568 349.208 163.416 342.776C178.648 331.68 192 313.104 192 282C192 252.352 162.928 234 136 234H128C110.352 234 96 248.352 96 266C96 283.648 110.352 298 128 298C145.648 298 160 283.648 160 266H144C144 274.824 136.824 282 128 282C119.176 282 112 274.824 112 266C112 257.176 119.176 250 128 250H136C155.232 250 176 262.232 176 282C176 307.64 165.584 325.096 144.496 335.408C80.64 306.992 33.048 248.512 19.776 178.024C69.856 221.872 201.296 226 248 226C294.704 226 426.144 221.872 476.224 178.024C462.96 248.512 415.36 306.984 351.512 335.408C330.416 325.096 320 307.64 320 282C320 262.232 340.768 250 360 250H368C376.824 250 384 257.176 384 266C384 274.824 376.824 282 368 282C359.176 282 352 274.824 352 266H336C336 283.648 350.352 298 368 298C385.648 298 400 283.648 400 266C400 248.352 385.648 234 368 234H360C333.072 234 304 252.352 304 282C304 313.04 317.272 331.616 332.6 342.768C313.44 349.2 293.112 353.024 272 353.8V290C272 281.176 264.824 274 256 274ZM416 482C357.88 482 329.688 446.088 322.304 362.568C327.592 361.192 332.776 359.584 337.904 357.856C341.752 403.304 351.536 429.592 369.04 441.704C372.512 455.616 385.024 466 400 466C417.648 466 432 451.648 432 434H416C416 442.824 408.824 450 400 450C391.176 450 384 442.824 384 434C384 425.176 391.176 418 400 418H416C433.648 418 448 432.352 448 450C448 467.648 433.648 482 416 482Z" fill="black"/>
</svg>
