<svg width="512" height="482" viewBox="0 0 512 482" fill="none" xmlns="http://www.w3.org/2000/svg">
<path d="M109.788 217.812C113.649 195.97 99.0736 175.133 77.2315 171.272C55.3895 167.41 34.5524 181.986 30.6906 203.828C26.8288 225.67 41.4047 246.507 63.2468 250.369C85.0888 254.23 105.926 239.655 109.788 217.812Z" stroke="black" stroke-width="20" stroke-miterlimit="10" stroke-linecap="round" stroke-linejoin="round"/>
<path d="M160.612 250.979H250.979V210.816H160.612" stroke="black" stroke-width="20" stroke-miterlimit="10" stroke-linecap="round" stroke-linejoin="round"/>
<path d="M381.51 200.775L321.264 170.653H150.571C128.39 170.653 110.408 188.635 110.408 210.816C110.408 232.998 128.39 250.979 150.571 250.979C167.344 250.979 463.74 250.979 481.918 250.979V200.775H381.51Z" stroke="black" stroke-width="20" stroke-miterlimit="10" stroke-linecap="round" stroke-linejoin="round"/>
<path d="M10 271.099C10 282.215 19.008 291.224 30.12 291.224H481.88C492.992 291.224 502 282.216 502 271.104C502 259.987 492.992 250.979 481.88 250.979H30.12C19.008 250.979 10 259.987 10 271.099Z" stroke="black" stroke-width="20" stroke-miterlimit="10" stroke-linecap="round" stroke-linejoin="round"/>
<path d="M441.918 331.387H401.592C390.546 331.387 381.592 322.432 381.592 311.387V291.224H461.918V311.387C461.918 322.432 452.964 331.387 441.918 331.387Z" stroke="black" stroke-width="20" stroke-miterlimit="10" stroke-linecap="round" stroke-linejoin="round"/>
<path d="M110.408 331.387H70.0811C59.0351 331.387 50.0811 322.432 50.0811 311.387V291.224H130.408V311.387C130.408 322.432 121.454 331.387 110.408 331.387Z" stroke="black" stroke-width="20" stroke-miterlimit="10" stroke-linecap="round" stroke-linejoin="round"/>
<path d="M90.2451 471.876C79.1541 471.876 70.1631 462.885 70.1631 451.794V331.387H110.327V451.794C110.327 462.885 101.336 471.876 90.2451 471.876Z" stroke="black" stroke-width="20" stroke-miterlimit="10" stroke-linecap="round" stroke-linejoin="round"/>
<path d="M421.756 471.876C410.665 471.876 401.674 462.885 401.674 451.794V331.387H441.837V451.794C441.837 462.885 432.846 471.876 421.756 471.876Z" stroke="black" stroke-width="20" stroke-miterlimit="10" stroke-linecap="round" stroke-linejoin="round"/>
<path d="M200.775 150.571C200.775 161.662 187.289 170.652 170.652 170.652C154.016 170.652 140.53 161.662 140.53 150.571C140.53 139.48 154.016 130.489 170.652 130.489C187.289 130.489 200.775 139.48 200.775 150.571Z" stroke="black" stroke-width="20" stroke-miterlimit="10" stroke-linecap="round" stroke-linejoin="round"/>
<path d="M261.02 150.571C261.02 161.662 247.534 170.652 230.897 170.652C214.261 170.652 200.775 161.662 200.775 150.571C200.775 139.48 214.261 130.489 230.897 130.489C247.534 130.489 261.02 139.48 261.02 150.571Z" stroke="black" stroke-width="20" stroke-miterlimit="10" stroke-linecap="round" stroke-linejoin="round"/>
<path d="M321.265 150.571C321.265 161.662 307.779 170.652 291.143 170.652C274.507 170.652 261.021 161.662 261.021 150.571C261.021 139.48 274.507 130.489 291.143 130.489C307.779 130.489 321.265 139.48 321.265 150.571Z" stroke="black" stroke-width="20" stroke-miterlimit="10" stroke-linecap="round" stroke-linejoin="round"/>
<path d="M291.143 90.326C291.143 70.245 281.103 70.245 281.103 50.163C281.103 30.081 291.143 30.081 291.143 10" stroke="black" stroke-width="20" stroke-miterlimit="10" stroke-linecap="round" stroke-linejoin="round"/>
<path d="M230.898 90.326C230.898 70.245 220.857 70.245 220.857 50.163C220.857 30.081 230.898 30.081 230.898 10" stroke="black" stroke-width="20" stroke-miterlimit="10" stroke-linecap="round" stroke-linejoin="round"/>
<path d="M170.653 90.326C170.653 70.245 160.613 70.245 160.613 50.163C160.613 30.081 170.653 30.081 170.653 10" stroke="black" stroke-width="20" stroke-miterlimit="10" stroke-linecap="round" stroke-linejoin="round"/>
<path d="M291.143 250.979V170.652" stroke="black" stroke-width="20" stroke-miterlimit="10" stroke-linecap="round" stroke-linejoin="round"/>
</svg>
