<svg width="1520" height="1109" viewBox="0 0 1520 1109" fill="none" xmlns="http://www.w3.org/2000/svg">
<path d="M541.396 493.847C557.156 521.697 567.147 533.977 592.247 569.287" stroke="black" stroke-width="23.11" stroke-linecap="round" stroke-linejoin="round"/>
<path d="M640.267 542.847C710.537 499.847 672.797 522.247 743.037 479.297" stroke="black" stroke-width="23.11" stroke-linecap="round" stroke-linejoin="round"/>
<path d="M246.647 351.917C256.397 348.467 266.977 352.797 276.587 356.637C313.827 371.517 353.307 379.777 392.587 387.967L449.197 399.847C481.597 406.607 514.197 413.397 547.197 414.847C559.657 415.407 572.757 415.057 583.637 408.967C589.149 405.807 593.795 401.333 597.161 395.944C600.526 390.555 602.507 384.417 602.927 378.077C603.637 365.427 602.707 354.297 587.197 338.787C579.327 330.917 563.547 323.667 553.487 318.887" stroke="black" stroke-width="23.11" stroke-linecap="round" stroke-linejoin="round"/>
<path d="M232.287 450.927C241.047 443.927 253.647 445.747 264.637 447.927L426.267 479.687C439.667 482.317 453.387 484.967 466.897 482.927C480.774 480.789 493.468 473.87 502.787 463.367C508.057 457.367 512.207 450.017 512.547 442.047C513.067 430.157 505.237 419.657 497.417 410.687" stroke="black" stroke-width="23.11" stroke-linecap="round" stroke-linejoin="round"/>
<path d="M311.867 558.797C305.191 565.003 297.343 569.815 288.783 572.949C280.224 576.083 271.125 577.476 262.02 577.048C252.914 576.62 243.986 574.378 235.759 570.454C227.531 566.53 220.17 561.003 214.107 554.197L204.667 543.847C188.975 526.656 178.561 505.314 174.667 482.367C173.527 475.537 172.667 468.647 171.827 461.847L165.947 413.787C164.337 400.627 162.727 387.277 164.717 374.177C166.767 360.627 172.577 347.927 175.447 334.527C179.547 315.417 177.677 295.007 184.827 276.817C193.407 255.027 213.327 240.187 228.467 222.317C240.637 207.957 249.887 191.317 261.867 176.827C273.847 162.337 289.597 149.537 308.247 147.017C317.797 145.727 327.497 147.207 336.987 148.867C426.387 164.547 512.627 196.967 591.297 242.217C607.097 251.307 624.297 263.587 625.727 281.757C626.727 295.417 617.727 308.487 605.647 315.037C593.567 321.587 579.227 322.487 565.647 320.797C552.357 319.147 539.487 315.177 526.647 311.237L426.107 280.237C409.917 275.237 393.667 270.237 376.947 267.517C352.667 263.517 327.397 264.407 304.187 256.267" stroke="black" stroke-width="23.11" stroke-linecap="round" stroke-linejoin="round"/>
<path d="M253.917 540.767C292.271 550.556 331.962 554.045 371.437 551.097C385.677 550.027 400.577 547.837 411.957 539.207C428.477 526.667 432.957 500.877 421.677 483.477" stroke="black" stroke-width="23.11" stroke-linecap="round" stroke-linejoin="round"/>
<path d="M543.797 171.467C571.127 151.317 618.897 152.617 632.707 168.567C635.328 171.451 637.366 174.817 638.707 178.477C640.707 184.277 640.037 190.637 638.797 196.637C634.887 215.419 625.421 232.593 611.627 245.927" stroke="black" stroke-width="23.11" stroke-linecap="round" stroke-linejoin="round"/>
<path d="M177.747 304.657C145.387 358.417 106.747 411.927 97.2667 473.957C95.3467 486.557 94.4367 499.507 97.0467 511.957C101.607 533.737 116.347 551.957 132.157 567.577C156.686 591.899 184.82 612.292 215.567 628.037C224.137 632.417 233.887 636.517 243.127 633.807C253.577 630.747 259.657 620.167 264.677 610.497C271.197 597.937 274.487 591.867 280.997 579.317" stroke="black" stroke-width="23.11" stroke-linecap="round" stroke-linejoin="round"/>
<path d="M178.497 294.917C111.857 347.287 90.6366 350.407 15.2866 389.197" stroke="black" stroke-width="23.11" stroke-linecap="round" stroke-linejoin="round"/>
<path d="M18.6465 759.067C50.4365 758.867 116.926 777.587 206.526 676.347" stroke="black" stroke-width="23.11" stroke-linecap="round" stroke-linejoin="round"/>
<path d="M649.037 327.987C656.675 338.503 667.775 345.992 680.387 349.137C689.647 351.407 699.387 351.237 708.617 353.587C730.477 359.127 745.977 378.157 757.697 397.427C772.887 422.427 772.887 422.427 790.447 456.527" stroke="black" stroke-width="23.11" stroke-linecap="round" stroke-linejoin="round"/>
<path d="M596.037 573.167C613.917 589.637 637.697 596.777 661.927 594.837C686.157 592.897 709.207 582.837 729.307 569.157C765.307 544.687 795.937 503.377 790.977 460.157" stroke="black" stroke-width="23.11" stroke-linecap="round" stroke-linejoin="round"/>
<path d="M435.357 167.207C418.647 139.124 403.62 110.072 390.357 80.2067C385.787 69.9167 381.357 58.6167 383.997 47.6767C388.227 30.2667 407.997 21.6167 425.757 19.0467C441.157 16.8167 449.997 30.9967 451.757 33.0467C477.457 63.7767 489.957 88.1367 510.517 122.517C520.957 139.967 522.617 143.207 542.467 170.657" stroke="black" stroke-width="23.11" stroke-linecap="round" stroke-linejoin="round"/>
<path d="M396.697 22.3868C361.187 4.30677 318.227 11.7168 280.277 23.8868C158.827 62.8468 76.3066 147.377 11.5566 257.247" stroke="black" stroke-width="23.11" stroke-linecap="round" stroke-linejoin="round"/>
<path d="M667.627 626.687C654.213 695.518 665.326 766.874 699.037 828.367C721.167 868.367 740.287 892.417 777.857 918.467" stroke="black" stroke-width="23.11" stroke-linecap="round" stroke-linejoin="round"/>
<path d="M800.617 372.787C847.507 332.947 893.777 317.367 954.447 307.107C977.917 303.107 1037.79 309.707 1088.73 320.617C1101.22 323.297 1117.36 323.437 1129.73 328.067C1148.37 335.067 1152.12 343.817 1168.49 354.907" stroke="black" stroke-width="23.11" stroke-linecap="round" stroke-linejoin="round"/>
<path d="M1185.21 398.247C1190.1 402.937 1195.96 407.127 1202.7 407.827C1209.44 408.527 1217.13 398.357 1217.13 388.827" stroke="black" stroke-width="23.11" stroke-linecap="round" stroke-linejoin="round"/>
<path d="M1027.82 708.527C1016.72 712.026 1006.65 718.208 998.505 726.525C990.362 734.842 984.395 745.039 981.132 756.212C977.869 767.385 977.411 779.19 979.798 790.583C982.185 801.975 987.343 812.603 994.817 821.527C1014.87 845.467 1048.76 853.587 1079.93 851.527C1126.56 848.527 1149.69 831.607 1177.47 809.387" stroke="black" stroke-width="23.11" stroke-linecap="round" stroke-linejoin="round"/>
<path d="M1032.62 752.497C1035.35 751.103 1038.35 750.299 1041.42 750.139C1044.48 749.979 1047.55 750.465 1050.42 751.567C1055.26 753.467 1059.23 757.017 1063.09 760.497C1070.38 767.077 1078.04 774.267 1080.27 783.817C1081.32 788.307 1081.17 793.287 1083.81 797.077" stroke="black" stroke-width="23.11" stroke-linecap="round" stroke-linejoin="round"/>
<path d="M1084.7 468.137C1095.14 458.337 1112.85 438.617 1108.21 420.987" stroke="black" stroke-width="23.11" stroke-linecap="round" stroke-linejoin="round"/>
<path d="M1074.37 431.537C1077.77 429.379 1081.78 428.393 1085.79 428.729C1089.81 429.065 1093.6 430.704 1096.6 433.397" stroke="black" stroke-width="23.11" stroke-linecap="round" stroke-linejoin="round"/>
<path d="M1211.21 383.637C1212.84 384.907 1211.53 383.637 1213.21 384.867" stroke="black" stroke-width="23.11" stroke-linecap="round" stroke-linejoin="round"/>
<path d="M1508.04 280.697C1444.1 298.557 1384.51 332.097 1329.04 369.347C1259.41 416.137 1194.04 469.557 1120.95 510.697C1101.56 521.607 1082.37 532.927 1065.14 547.007C1048.36 560.707 1032.2 570.577 1038.52 605.777C1038.52 605.777 1044.89 626.127 1059.84 626.237C1090.59 626.467 1120.02 613.237 1146.39 597.377C1172.76 581.517 1196.73 562.087 1222.15 544.777C1244.82 529.347 1268.61 515.647 1292.5 502.187C1306.11 494.517 1319.86 486.847 1331.85 476.817C1343.84 466.787 1354.1 454.137 1358.79 439.227" stroke="black" stroke-width="23.11" stroke-linecap="round" stroke-linejoin="round"/>
<path d="M1082.74 626.677C1073.45 634.723 1064.72 643.376 1056.58 652.577C1044.22 666.577 1032.65 685.187 1038.78 702.807C1044.85 720.237 1066.44 727.987 1084.64 724.907C1102.84 721.827 1118.5 710.757 1133.89 700.547C1157.5 684.877 1181.99 670.547 1206.47 656.287L1287.91 608.747C1332.62 582.647 1377.54 556.437 1425.69 537.417" stroke="black" stroke-width="23.11" stroke-linecap="round" stroke-linejoin="round"/>
<path d="M1182.21 670.567C1170.69 680.187 1163.31 689.687 1153.68 701.207C1144.05 712.727 1136.4 726.297 1134.02 741.117C1133.02 747.027 1133.02 753.437 1136.16 758.557C1138.52 762.457 1142.44 765.167 1146.55 767.137C1158.89 773.037 1173.4 772.997 1186.68 769.767C1199.96 766.537 1213.16 761.837 1221.89 749.937" stroke="black" stroke-width="23.11" stroke-linecap="round" stroke-linejoin="round"/>
<path d="M1504.62 619.917C1459.94 621.357 1413.88 623.807 1373.54 643.067C1352.16 653.277 1333.2 667.857 1312.54 679.527C1289.77 692.417 1265 701.747 1243.27 716.327C1235.4 721.607 1227.7 727.897 1223.84 736.547C1219.98 745.197 1221.13 756.717 1228.7 762.417C1234.77 766.977 1243.07 766.797 1250.63 766.167C1292.31 762.685 1333.06 751.996 1371.09 734.577C1383.69 728.797 1395.95 722.297 1408.61 716.647C1439.51 702.867 1472.38 694.347 1505.44 686.877" stroke="black" stroke-width="23.11" stroke-linecap="round" stroke-linejoin="round"/>
<path d="M1084.13 800.377C1087.48 802.467 1091.87 802.287 1095.55 800.857C1099.23 799.427 1102.38 796.907 1105.45 794.427" stroke="black" stroke-width="23.11" stroke-linecap="round" stroke-linejoin="round"/>
<path d="M1208.44 467.407C1211.28 470.668 1213.18 474.643 1213.93 478.904C1214.68 483.164 1214.26 487.549 1212.71 491.587" stroke="black" stroke-width="23.11" stroke-linecap="round" stroke-linejoin="round"/>
<path d="M1228.7 574.087C1233.08 578.652 1235.84 584.523 1236.58 590.807" stroke="black" stroke-width="23.11" stroke-linecap="round" stroke-linejoin="round"/>
<path d="M1376.28 681.277C1376.63 683.284 1377.42 685.192 1378.58 686.867" stroke="black" stroke-width="23.11" stroke-linecap="round" stroke-linejoin="round"/>
<path d="M1282.58 950.297C1270.37 934.997 1265.12 914.957 1265.09 895.377C1265.06 875.797 1269.9 856.517 1276.09 837.947C1281.03 823.165 1286.85 808.692 1293.53 794.607C1299.07 782.907 1305.3 771.147 1306.66 758.267" stroke="black" stroke-width="23.11" stroke-linecap="round" stroke-linejoin="round"/>
<path d="M833.037 939.337C880.037 942.337 955.337 944.117 994.557 942.997C1005.95 942.667 1017.35 942.087 1028.66 940.647C1080.04 933.934 1127.62 909.956 1163.59 872.647" stroke="black" stroke-width="23.11" stroke-linecap="round" stroke-linejoin="round"/>
<path d="M1104.04 920.037C1122.56 916.117 1141.68 920.347 1160.32 923.647C1196.23 929.992 1232.67 932.855 1269.14 932.197" stroke="black" stroke-width="23.11" stroke-linecap="round" stroke-linejoin="round"/>
<path d="M993.037 634.127C981.837 624.057 964.747 623.807 950.197 627.707C935.647 631.607 922.197 638.977 907.537 642.507C896.179 645.241 884.377 645.588 872.879 643.525C861.38 641.463 850.434 637.036 840.735 630.525C831.036 624.014 822.793 615.56 816.53 605.699C810.266 595.838 806.118 584.784 804.347 573.237" stroke="black" stroke-width="23.11" stroke-linecap="round" stroke-linejoin="round"/>
<path d="M1116.46 369.587C1127.81 373.337 1140.46 371.007 1151.16 365.587C1161.86 360.167 1177.45 347.587 1190.16 343.587C1190.16 343.587 1217.34 338.587 1234.7 357.337C1238.46 361.581 1243.07 364.988 1248.23 367.337C1255.08 370.267 1262.89 368.817 1270.34 368.457C1287.34 367.617 1294.83 373.077 1308.4 383.317" stroke="black" stroke-width="23.11" stroke-linecap="round" stroke-linejoin="round"/>
<path d="M1024.62 467.467C1014.93 445.107 1020.15 392.177 1037.29 384.727" stroke="black" stroke-width="23.11" stroke-linecap="round" stroke-linejoin="round"/>
<path d="M1061.82 337.317C1062.71 333.231 1064.7 329.466 1067.57 326.423C1070.44 323.381 1074.08 321.177 1078.11 320.047" stroke="black" stroke-width="23.11" stroke-linecap="round" stroke-linejoin="round"/>
<path d="M669.177 891.117C627.347 909.257 580.837 912.447 535.467 916.907C354.347 934.737 190.547 976.907 20.5266 1041.8" stroke="black" stroke-width="23.11" stroke-linecap="round" stroke-linejoin="round"/>
<path d="M157.907 1080.44C313.798 1017.14 482.977 993.596 650.227 1011.91" stroke="black" stroke-width="23.11" stroke-linecap="round" stroke-linejoin="round"/>
<path d="M782.817 1096.72C822.117 1083.37 862.605 1073.81 903.727 1068.18C916.947 1066.37 930.327 1064.97 943.617 1066.18C960.267 1067.74 976.237 1073.41 992.617 1076.63C1011.81 1080.39 1031.49 1080.78 1051.05 1081.16L1450.64 1088.84" stroke="black" stroke-width="23.11" stroke-linecap="round" stroke-linejoin="round"/>
<path d="M760.727 995.247C830.437 997.097 1087.6 1003.84 1157.31 1005.69" stroke="black" stroke-width="23.11" stroke-linecap="round" stroke-linejoin="round"/>
<path d="M1325.04 962.447H1501.74" stroke="black" stroke-width="23.11" stroke-linecap="round" stroke-linejoin="round"/>
</svg>
