<svg width="441" height="388" viewBox="0 0 441 388" fill="none" xmlns="http://www.w3.org/2000/svg">
<path d="M330.844 302.349C273.692 302.349 226.684 293.845 220.94 282.941C221.66 285.389 223.068 289.821 224.812 295.189C196.312 294.074 167.777 296.154 139.74 301.389C138.02 301.341 136.212 301.341 134.22 301.389C124.556 301.57 114.947 299.903 105.908 296.477C120.036 294.997 136.812 290.725 146.524 279.277C165.54 256.877 142.884 249.085 130.1 233.933C118.276 219.917 107.7 217.213 101.572 237.821C101.337 234.715 100.711 231.65 99.7083 228.701C99.2843 227.509 98.8203 226.509 98.3643 225.501C102.3 224.181 106.236 222.877 110.108 221.597L118.004 218.981C136.748 238.109 173.292 251.781 220.124 251.781C236.827 251.732 253.488 250.126 269.892 246.981C283.21 244.597 296.317 241.163 309.092 236.709C307.759 233.709 307.067 230.464 307.06 227.181C307.187 224.65 307.702 222.155 308.588 219.781C295.098 224.961 281.132 228.809 266.892 231.269C187.388 246.301 131.484 220.869 121.708 196.725C117.94 187.421 121.556 179.061 132.452 171.925C137.927 168.336 143.627 165.103 149.516 162.245C149.556 162.245 149.58 162.181 149.62 162.165C180.495 170.183 212.25 174.316 244.148 174.469C266.971 174.768 289.721 171.824 311.716 165.725C315.54 167.837 319.364 170.053 323.068 172.461C327.307 175.161 330.865 178.802 333.468 183.101C334.652 185.118 335.538 187.295 336.1 189.565L337.38 191.397C341.439 197.168 345.149 203.176 348.492 209.389C349.06 208.509 349.568 207.593 350.012 206.645C352.226 201.555 353.133 195.992 352.651 190.463C352.169 184.933 350.313 179.611 347.252 174.981C343.386 168.549 338.089 163.096 331.772 159.045C331.492 158.861 331.196 158.717 330.908 158.533C337.551 155.527 343.844 151.804 349.676 147.429C366.316 134.629 373.34 121.301 370.548 107.845C364.548 78.9009 314.468 65.9489 313.748 65.7569L308.772 64.5089C313.341 61.034 316.7 56.2084 318.372 50.7169C319.349 45.6321 318.947 40.3786 317.208 35.5015C315.469 30.6243 312.457 26.3013 308.484 22.9809C308.257 22.7839 308.02 22.5996 307.772 22.4289C287.393 8.27438 263.277 0.476816 238.468 0.0211749C213.66 -0.434466 189.273 6.47226 168.388 19.8689C162.858 22.7701 158.594 27.6123 156.416 33.4655C154.238 39.3187 154.299 45.7702 156.588 51.5809C158.495 56.0165 161.291 60.0137 164.804 63.3249C153.836 66.2449 142.276 69.7249 129.668 74.1009C121.5 77.0689 80.6843 93.0689 79.8763 116.853C79.4603 129.245 88.9963 139.573 109.028 148.421C114.908 151.021 121.444 153.429 128.228 155.733C126.7 156.669 125.116 157.565 123.644 158.533C106.5 169.821 100.236 186.349 106.844 202.733C107.204 203.629 107.7 204.509 108.132 205.389L105.036 206.413C98.4043 208.605 91.8363 210.781 85.4123 212.981C75.9883 211.157 64.3723 218.109 52.1803 220.293C39.6843 222.533 32.1803 226.957 33.6683 234.645C22.1701 240.047 13.0751 249.51 8.13231 261.213C-4.71569 268.469 1.86031 285.565 0.50831 301.517C-1.16369 321.277 5.42031 330.669 28.2923 316.093C30.9584 314.412 33.7539 312.946 36.6523 311.709C38.8043 313.189 41.1243 314.645 43.5963 316.053C36.1716 322.786 30.973 331.621 28.6923 341.381C23.4363 370.301 46.9403 365.709 65.5883 372.437C84.2363 379.165 95.0203 375.237 86.8603 349.373C84.6929 342.277 83.7303 334.867 84.0123 327.453C84.4203 327.453 84.8123 327.501 85.2123 327.501C85.8203 327.501 86.4763 327.405 87.1003 327.389C91.723 339.289 100.307 349.231 111.404 355.541C137.972 368.109 139.62 344.213 150.956 327.941C153.947 324.003 156.148 319.523 157.436 314.749C181.495 311.142 205.869 310.099 230.148 311.637C236.124 329.765 242.612 349.157 242.612 349.157C246.741 360.356 254.219 370.01 264.031 376.807C273.842 383.603 285.509 387.212 297.444 387.141H364.156C376.092 387.212 387.759 383.603 397.57 376.807C407.381 370.01 414.86 360.356 418.988 349.157C418.988 349.157 437.284 294.517 440.708 282.933C435.004 293.845 387.996 302.349 330.844 302.349ZM177.188 33.2369C194.87 21.9068 215.444 15.9155 236.444 15.9809C258.487 15.9609 280.007 22.686 298.116 35.2529C299.26 36.3969 304.204 41.7169 302.916 46.5249C302.116 49.3409 296.844 59.0689 260.884 65.8689C212.316 75.0529 177.172 59.7089 171.444 45.5809C170.788 43.9089 168.708 38.8289 177.188 33.2369ZM115.508 133.789C102.876 128.189 95.7243 122.245 95.8923 117.405C96.2123 107.805 119.508 94.8449 135.02 89.1969C150.751 83.6829 166.776 79.0465 183.02 75.3089C198.452 81.8152 215.076 85.0147 231.82 84.7009C242.579 84.6675 253.311 83.6283 263.876 81.5969C271.801 80.1502 279.615 78.1507 287.26 75.6129C287.497 75.7351 287.74 75.8446 287.988 75.9409C295.092 77.5409 302.324 79.3969 310.1 81.3569C322.9 84.5569 351.916 96.5569 354.9 111.117C356.692 119.765 347.748 128.717 339.932 134.773C294.34 169.877 181.86 163.061 115.508 133.789ZM67.2283 292.877C67.2283 290.467 67.9429 288.111 69.2817 286.108C70.6205 284.104 72.5234 282.543 74.7497 281.62C76.976 280.698 79.4258 280.457 81.7893 280.927C84.1528 281.397 86.3237 282.558 88.0277 284.262C89.7317 285.965 90.8921 288.136 91.3622 290.5C91.8323 292.863 91.591 295.313 90.6689 297.54C89.7467 299.766 88.185 301.669 86.1814 303.008C84.1777 304.346 81.8221 305.061 79.4123 305.061C76.1809 305.061 73.0819 303.777 70.7969 301.492C68.512 299.207 67.2283 296.108 67.2283 292.877ZM42.3483 248.029C43.2763 248.965 44.2443 249.917 45.3243 250.909C52.2724 257.594 57.8795 265.544 61.8443 274.333C52.386 266.032 40.869 260.428 28.5003 258.109C32.6213 254.117 37.2829 250.724 42.3483 248.029ZM350.228 212.781C360.093 216.609 369.733 220.995 379.1 225.917C408.444 241.509 413.9 258.973 413.26 270.989C422.012 273.829 427.188 277.133 427.188 280.693C427.188 286.733 412.668 292.093 390.164 295.549L387.86 268.549C387.724 267.461 387.396 266.445 387.156 265.389C390.676 265.885 393.964 266.445 397.108 267.029C395.508 254.685 381.068 245.069 371.596 240.045C365.996 237.085 360.188 234.301 354.156 231.677C354.45 230.199 354.603 228.696 354.612 227.189C354.148 222.138 352.656 217.235 350.228 212.781ZM330.844 239.757C327.514 239.753 324.322 238.428 321.968 236.074C319.613 233.719 318.289 230.527 318.284 227.197C320.871 218 325.129 209.357 330.844 201.701C336.561 209.357 340.818 217.999 343.404 227.197C343.4 230.527 342.075 233.719 339.721 236.074C337.366 238.428 334.174 239.753 330.844 239.757ZM274.556 265.357C274.3 266.477 273.956 267.557 273.812 268.717L271.548 295.517C249.028 292.061 234.5 286.717 234.5 280.653C234.5 274.389 250.324 268.821 274.556 265.389V265.357ZM308.34 250.957H353.348C358.694 250.965 363.855 252.918 367.868 256.451C371.88 259.983 374.471 264.855 375.156 270.157L376.756 295.541C361.497 297.136 346.163 297.913 330.82 297.869C315.483 297.911 300.155 297.134 284.9 295.541L286.54 269.821C287.285 264.574 289.903 259.774 293.909 256.306C297.916 252.838 303.041 250.935 308.34 250.949V250.957Z" fill="black"/>
</svg>
