<?xml version="1.0" encoding="UTF-8"?>
<!DOCTYPE svg PUBLIC "-//W3C//DTD SVG 1.1//EN" "http://www.w3.org/Graphics/SVG/1.1/DTD/svg11.dtd">
<!-- Creator: CorelDRAW 2018 (64-Bit) -->
<svg xmlns="http://www.w3.org/2000/svg" xml:space="preserve" width="121.268mm" height="59.6786mm" version="1.1" style="shape-rendering:geometricPrecision; text-rendering:geometricPrecision; image-rendering:optimizeQuality; fill-rule:evenodd; clip-rule:evenodd"
viewBox="0 0 9505.21 4677.73"
 xmlns:xlink="http://www.w3.org/1999/xlink">
 <defs>
  <style type="text/css">
   <![CDATA[
    .fil0 {fill:#BD8736}
   ]]>
  </style>
 </defs>
 <g id="Layer_x0020_1">
  <metadata id="CorelCorpID_0Corel-Layer"/>
  <path class="fil0" d="M1887.05 3782.2l7.5 -18.64c32.53,-3.43 1056.68,-0.19 1087.94,-0.19l1023.4 -2.44 -66.52 -156.2 -1951.17 1.7 46.14 -97.16 47.87 -88.58 1778.3 -1.26 -70.68 -165.95 -1619.23 -0.44 463.58 -868.22 7.01 -0.53c266.72,0 512.05,0.03 778.81,0.03l-64.57 -151.66 -803.04 0.62 -1237.23 2302.27 4.88 0 3015.95 0.96 -67.43 -158.18 -2008.36 -0.34 -687.67 -0.53 78.55 -149.65 39.2 -76.97 196.75 -368.64zm969.86 -1759.25c-28.09,-105.99 -83.83,-200.71 -159.08,-275.95 -110.89,-110.89 -264.1,-179.47 -433.32,-179.47 -169.26,0 -322.43,68.58 -433.33,179.47 -110.93,110.89 -179.5,264.1 -179.5,433.33 0,169.25 68.58,322.46 179.5,433.35 52.65,52.69 114.9,95.81 183.85,126.54l-61.11 113.73c-79.97,-36.94 -152.28,-87.68 -213.83,-149.22 -134.2,-134.19 -217.22,-319.62 -217.22,-524.4 0,-204.78 83.02,-390.18 217.22,-524.38 134.23,-134.19 319.63,-217.22 524.41,-217.22 204.77,0 390.17,83.03 524.37,217.22 98.82,98.79 169.88,225.36 200.49,367l-132.47 0zm278.73 0c-32.56,-181.32 -120.31,-343.51 -245.27,-468.48 -160.18,-160.15 -381.45,-259.22 -625.85,-259.22 -244.41,0 -465.71,99.07 -625.86,259.22 -160.18,160.18 -259.23,381.45 -259.23,625.86 0,244.4 99.04,465.7 259.23,625.85 71.39,71.42 154.94,130.65 247.25,174.38l-61.04 113.61c-103.39,-49.82 -197.04,-116.66 -277.28,-196.91 -183.45,-183.48 -296.93,-436.96 -296.93,-716.93 0,-279.97 113.48,-533.42 296.93,-716.9 183.48,-183.48 436.97,-296.97 716.94,-296.97 279.96,0 533.41,113.49 716.9,296.97 148.39,148.39 250.98,342.58 284.81,559.52l-130.58 0zm-595.18 -351.32l-13.21 -6.76 3.95 5.96 9.26 0.8zm-2022.18 1361.86c6.02,11.58 6.58,13.46 16.08,18 2.1,2.77 0.62,4.01 6.91,7.04l24.32 2.74c14.41,-3.27 5.49,-1.17 10.53,-6.66 102.74,-55 292.96,-168.43 391.53,-228.33 26.36,-16.01 115.15,-63.91 123.98,-83.39 6.58,-42.69 -12.46,-48.73 -28.18,-69.38 -36.05,-1.48 -119.1,52.78 -149.84,71.52 -47.84,29.2 -88.98,53.95 -136.94,82.1 -27.68,16.26 -258.45,144.44 -265.73,172.43 -0.19,14.13 2.53,23.46 7.34,33.95zm270.83 -485.05c17.81,0.03 44.57,0.65 57.41,-10.49 17.16,0.92 83.52,-12.47 106.08,-16.7 37.04,-6.88 58.89,-26.23 46.63,-68.39 -5.55,-12.84 -8.05,-19.23 -16.39,-27.01l-13.05 -1.42c-26.98,-4.84 -188.27,21.85 -224.04,28.89 -75.74,14.93 -152.9,21.35 -226.67,34.44 -144.56,25.68 -301.57,46.75 -446.81,73.11 -14.69,2.69 -37.19,7.47 -45.62,19.6 -7.65,11.04 -10.21,38.36 -5.06,53.36 13.58,39.41 56.54,26.63 95.12,20.15l449.22 -71.85c45.4,-6.79 188.76,-35.74 223.17,-33.7zm5498.2 974.8c4.84,-2.65 4.26,-1.69 5.75,-3.04 -59.95,57.75 -135,145.66 -191.31,209.15 -7.87,8.88 -17.85,23.95 -28.05,26.47 -6.4,12.84 -19.37,31.75 -34.9,37.7l0.09 -536.71c-0.38,-0.1 -120.94,-14.04 -125.47,6.57l-0.56 598.51c0.21,43.23 -5.84,169.99 1.65,203.03 22.64,2.5 32.92,-0.18 52.81,-3.83 6.03,-9.5 16.45,-18.68 25.28,-30.25 36.31,-47.6 102.27,-117.2 144.27,-160.3l295.11 -314.93c4.41,-10.67 11.94,-21.88 23.75,-24.88l0.9 532.26c17.78,4.66 110.02,8.02 122.09,-0.54 9.06,-8.98 4.09,-185.71 4.09,-197.15 -0.01,-68.44 0.13,-136.88 0.24,-205.31 0.13,-68.44 0.03,-136.89 -0.06,-205.32 -0.06,-44.69 4.36,-167.41 -3.05,-201.8 -9.43,-0.31 -30.54,-2.13 -38.32,2.5 -7.45,4.43 -148.34,188.31 -223.57,236.33l-0.01 0c-32.22,3.49 -30.09,-5.34 -30.74,31.54zm-1909.83 -1867.59c0.09,-11.21 -1.92,-19.97 -9.26,-25.87 -6.6,-23.89 -29.57,-17.47 -54.69,-13.24 -20.65,3.46 -42.32,8.64 -61.79,11.88 -203.36,33.74 -410.09,86.35 -611.94,124.53 -19.35,3.68 -42.77,5.77 -62.31,10 -18.39,4.01 -41.29,9.69 -61.29,13.67 -57.96,11.55 -92.58,17.93 -85.46,66.3 7.9,53.43 56.18,40.09 102.74,30.68 37.16,-7.53 82.56,-17.19 121.7,-25.83 82.99,-18.33 171.45,-27.59 249.47,-47.5 82.1,-20.98 159.66,-32.53 244.16,-50.02 40.65,-8.43 80.62,-18.58 120.77,-25.9 44.51,-8.12 86.26,-13.46 112.35,-38.67 0.67,-6.54 1.6,-10.77 0.8,-17.62 -1.54,-13.09 -0.49,-7.84 -5.24,-12.41zm-577.53 -276.63c11.24,-2.16 20.72,-11.29 33.24,-20.25 13.43,-9.59 24.08,-15.77 27.07,-26.57 24.29,-11.51 -11.76,-59.84 -46.01,-61.29 -26.73,-1.11 -118.09,60.71 -151.32,81.76l-214.05 135.15c-44.75,29.48 -95.37,56.08 -140.02,91.61 -2.69,33.85 15.55,53.95 36.48,70.58 31.97,-0.24 92.93,-41.79 121.11,-58.92l305.3 -191.04c4.73,-2.99 9.7,-5.99 14.82,-9.05 10.15,-6.02 7.87,-3.58 13.39,-11.98zm-2720.63 366.63c10.96,6.48 5.53,3.92 20.5,4.81 12.78,-40.59 28.61,-23.4 11.14,-52.81 -4.69,-7.9 -0.24,-5.77 -4.88,-10.13 0,-24.13 3.03,1.58 -7.38,-8.89 -6.94,-3.61 0.86,-5.93 -29.2,-21.2 -59.23,-30.12 -351.5,-138.92 -431.78,-170.39 -25.98,-10.19 -52.49,-21.63 -78.26,-31.14 -35.84,-13.22 -58.09,-12.53 -76.05,17 -20.46,33.64 -2.65,52.75 23.49,66.45 20.43,10.68 53.86,25.46 75.03,33.95 47.07,18.89 471.35,181.82 483.7,180.62l13.7 -8.27zm5510.43 1187.44l12.22 -0.52c1.11,-3.37 35.74,-41.64 27.96,-85.93 1.36,-21.3 113.33,-254.84 131.85,-298.76 7.34,-17.43 37.44,-91.79 44.19,-99.32 14.45,8.58 3.49,3.15 16.18,35.5 45.12,114.9 128.73,277.21 175.89,391.65 12.93,31.42 58.79,121.42 61.88,146.88 40.49,6.91 93.73,6.08 136.35,4.11 -1.51,-35.89 -68.58,-170.71 -86.29,-211.63 -49.39,-114.16 -135.03,-295.83 -188.02,-407.06 -15.59,-32.69 -33.48,-69.16 -47.99,-102.68 -12.87,-29.82 -32.59,-80 -51.26,-98.73l-27.54 -0.99c-19.13,18.91 -16.85,22.46 -28.08,46.57l-264.31 563.94c-16.52,35.59 -31.61,69.35 -47.26,103.49l-47.5 104.44c29.07,2.28 127.68,15.58 143.64,-8.74l16.2 -35c4.41,-10.53 17.25,-41.21 21.88,-47.23zm-276.38 -62.06c18.36,-11.64 69.69,-120.34 67.03,-144.87 2.87,-3.49 2.28,-1.08 4.75,-7.31 0.06,-0.09 2.63,-10.1 2.85,-11.05 1.69,-7.71 2.34,-11.76 3.61,-19.6 8.74,-53.74 9.63,-84.23 1.54,-140.4 -8.33,-58.03 -25.77,-104.63 -52.5,-150.68 -50.98,-87.96 -132.03,-151.29 -226.41,-181.07 -178.45,-56.36 -331.69,-17.57 -466.78,94.13 -28.05,23.21 -68.73,78.37 -88.61,116.76 -75.36,145.46 -48.42,349.22 53.55,468.88 139.76,164.04 403.79,199.41 592.89,74.69 26.52,-17.47 96.11,-68.43 108.09,-99.47zm2000.91 28.37c-11.91,-11.02 -5.64,-143.67 -5.86,-170.18 -0.49,-57.01 -0.24,-114.1 0.06,-171.11 0.24,-54.38 8.06,-316.6 -3.36,-345.43 -15.31,8.95 -92.56,-1.82 -118.67,1.11 -6.64,48.86 -1.83,331.45 -2.07,405.92 -0.46,132.1 -3.33,272.37 1.14,403.73 61.66,10.5 568.04,-6.76 593.75,5 10.09,39.44 -3.64,109.93 4.6,146.26 20.58,4.91 108.85,5.18 130.46,-0.62l1.39 -268.11 -95.37 -0.27c-12.38,-26.92 -4.91,-291.54 -5,-344.16 -0.09,-40.19 4.35,-337.9 -3.92,-346.72 -3.89,-7.47 3.17,-3.06 -9.7,-5.21l-51.47 -0.19c-18.25,0 -45.96,-1.14 -63.03,1.7 -4.08,21.29 -0.74,296.84 -0.74,343.57 0,60.93 2.5,303.61 -2.77,344.34 -15.99,4.04 -342.46,3.8 -369.44,0.38zm-3278.86 1667.71c-23.92,0 -8.15,14.01 -55,25.52 -165.71,40.74 -172.4,-164.72 -68.64,-187.47 55.37,-12.09 105.46,32.32 116.6,34.42 3.39,-28.77 9.29,-47.66 8.65,-79.13 -52.63,-34.75 -135.25,-54.44 -206.02,-9.11 -92,58.92 -135.46,273.18 56.88,320.09 45.62,11.15 72.62,5.06 111.26,-11.11 39.5,-16.58 42.69,-26.3 36.27,-93.21zm1312.29 -129.75c13.36,-40.03 37.59,-67.65 -12.16,-91.69 -98.06,-47.37 -234.38,-10.5 -258.3,111.76 -16.54,84.6 14.57,163.33 69.23,193.95 54.38,30.46 161.17,37.93 209.07,-12.72l-0.77 -68.67c-21.42,5.37 -29.26,18.49 -58.61,24.05 -167.49,31.6 -172.68,-156.14 -67.65,-189.94 60.31,-19.38 95.4,28.21 119.2,33.27zm-3387.78 -3220.67c19.35,12.56 25.77,4.56 33.7,23.02 25.15,-3.95 21.23,1.91 40.74,1.36 37.16,-62.13 127.68,-180.46 171.6,-249.35 28.36,-44.47 56.44,-83.63 85.24,-126.88 15.8,-23.67 27.19,-38.89 40.52,-65.55 5.99,-12.01 15.4,-24.23 10.4,-40.62 -3.39,-11.05 -18.15,-24.72 -26.88,-28.4 -51.88,-21.66 -77.5,32.22 -115.16,91.48l-214.16 316.26c-13.43,19.34 -33.09,43.7 -26.02,78.67zm-470.57 -667.27l-59.69 383.7c-12.32,72.03 -8.65,101.79 73.61,93.52 23.51,-20.37 27.83,-104.14 32.13,-141.94 5.46,-47.77 17.9,-102.25 24.78,-150.67l34.04 -230.03c1.76,-14.01 3.17,-25.96 4.54,-40.03 0.61,-6.64 1.66,-14.17 1.91,-20.74 0.74,-19.63 -20.74,-33.27 -42.62,-33.67 -40.12,-0.74 -66.76,125.06 -68.7,139.87zm-609.09 505.7c37.28,5.34 65.39,-4.44 81.05,-26.67 2.84,-8.58 -160.8,-468.33 -182.13,-524.71 -7.99,-21.14 -18.61,-57.96 -32.4,-70.46 -31.42,-3.89 -72.01,5.31 -73.12,37.34 -1.29,37.38 68.73,217.41 82.54,257.41 19.38,56.26 99.07,298.17 124.07,327.09zm-455.24 275c102.1,-77.68 32.53,-77.28 -76.97,-190.49l-195.06 -177.99c-24.93,-22.75 -107.16,-112.56 -135.4,-115.28 -33.36,-3.21 -60.52,43.86 -47.87,69.29 13.24,26.61 161.23,159.35 188.45,184.5 76.7,70.8 145.83,137.19 227.4,203.92 11.05,9.01 23.08,22.87 39.44,26.05zm-1053.56 865.42c-21.63,7.22 -32.53,42.66 -21.79,68.83 11.98,29.23 39.38,25.55 75.83,25.25 33.12,-0.31 66.17,-0.53 99.29,-1.05 30.77,-0.53 61.51,-5.03 92.31,-5.37 61.76,-0.71 137.4,1.58 197.47,-3.36 25.95,-2.13 117.86,-3.31 140.43,-7.66 21.3,-4.11 20.52,-7.63 32.25,-15.65 4.94,-27.1 5.06,-56.39 -10.1,-72.19 -26.49,-13.12 -255.18,-2.81 -305.21,-1.02 -93.45,3.36 -211.63,-0.84 -300.49,12.22zm7463 2470.05l77.63 -0.8c-0.84,-52.07 5.71,-298.55 -3.03,-325.43l-69.6 -0.81 -4.53 120.9c-18.65,5.21 -46.7,1.39 -67.1,1.63 -11.63,0.13 -22.59,0.16 -34.23,-0.12 -29.07,-0.68 -23.7,0.24 -27.4,-6.15 -8.86,-10.58 0.06,-96.82 -4.17,-119.69 -19.85,-1.29 -66.17,-7.16 -79.69,3.86 -5.28,5.62 -1.69,-6.23 -4.38,8.74l0.78 317.24c17.1,5.13 65.86,4.51 84.6,2.29l1.63 -132.78c15.16,-4.66 113.65,-3.73 124.69,1.08 8.86,7.93 0.46,105.86 4.81,130.03zm-1040.25 -72.54l-1.17 72.69c5.17,26.77 66.42,1.94 83.12,-8.1 81.13,-58.07 49.55,-169.86 54.77,-243.06 10.8,-1.49 90.26,-2.12 91.42,2.17 6.18,4.34 4.27,-6.25 7.1,12.93l0.97 109.78c0.26,24 -2.59,107.19 1.62,122.75 18.4,8.84 51.47,2.63 73.13,2.74 9.6,-20.42 1.29,-320.1 0.6,-325.9 -22.09,-5.78 -240.22,-7.02 -262.16,-0.51 -0.21,60.83 32.49,245.25 -49.41,254.49zm-1670.87 -256.62c-5.18,21.6 -5.43,309.31 -0.24,331.34 13.33,0.62 26.51,0.49 39.84,0.56 6.85,0 13.92,0.19 20.71,0.06 30.31,-0.49 21.52,4.3 22.28,-125.52 0.16,-21.66 0.34,-43.33 0.53,-64.99l0.89 -48.18c2.35,-17.57 0.43,-8.33 5.68,-12.74 2.96,-3.92 -6.29,-1.64 7.9,-3.71l96.05 0.74c14.04,1.58 5.09,-0.06 7.49,4.1 8.31,2.81 6.27,104.23 6.39,117.97 0.44,41.72 -0.99,85.27 1.18,126.73 20,5.83 57.87,5.77 79.72,2.19l-3.15 -329.31c-32.07,-3.3 -267.53,-5.13 -285.27,0.78zm1431.64 183.63c14.81,-4.66 28.15,-4.57 45.74,-4.38 26.49,0.27 24.72,1.11 22.87,27.28 -1.23,17.68 -2.5,28.37 -12.62,37.62 -37.96,34.69 -91.82,32.13 -101.08,-4.91 -10.06,-40.34 27.35,-50 45.09,-55.62zm-110.28 -151.69c7.93,25.71 0.4,38.12 22.41,58.61 17.13,-2.68 28.73,-13.3 43.3,-19.04 42.93,-16.98 115.55,-17.62 113.27,42.56 -17.68,10.77 -55.43,6.45 -77.78,9.97 -180.98,28.42 -144.29,191.85 -36.32,214.87 63.36,13.52 106.79,-42.22 122.9,-41.32l3.83 33.76c13.88,4.57 52.87,3.58 71.32,2.59 5.71,-27.07 -0.89,-123.24 -1.23,-158.27 -0.46,-46.17 6.51,-111.94 -18.62,-145.21 -46.51,-61.55 -195.64,-48.79 -243.08,1.48zm-742.98 142.13c11.51,110.39 -89.97,102.28 -109.19,82.03 -23.21,-24.38 -5.86,-54.04 19.54,-66.3 13.21,-6.36 73.45,-18.89 89.65,-15.74zm-182.49 -138.7c-1.14,22.06 9.13,40.34 17.46,57.34 21.33,-1.18 57.16,-26.23 95.3,-29.79 37.32,-3.49 74.17,14.81 70.28,53.03 -55.98,12.84 -96.39,-0.83 -148.97,25.31 -75.65,37.56 -90.9,172.43 35.8,197.31 66.39,13.05 103.61,-42.53 121.48,-46.85 3.83,16.97 2.52,27.1 13.73,39.47 18.05,3.24 46.14,4.51 61.45,-0.96 8.05,-6.42 3.92,-153.03 3.95,-161.42 0.02,-61.91 6.23,-95.99 -26.76,-137.87 -49.66,-63.03 -201.72,-50.06 -243.73,4.41zm1931.41 150.56c-9.23,51.45 -44.63,86.13 -109.23,73.42 -44.76,-8.79 -73.67,-62.74 -60.71,-119.23 27.41,-119.47 194.25,-89.63 169.94,45.81zm91.85 3.43c35.68,-231.14 -319.87,-279.75 -354.44,-50.68 -36.11,239.35 319.12,279.44 354.44,50.68zm-6372.57 -3064.27c14.72,13.4 44.29,43.96 68.86,37.97 16.82,-4.08 38.74,-25.4 43.76,-38.58 1.42,-3.77 2.72,-6.61 2.1,-11.48 -2.01,-15.8 -742.86,-644.28 -763.28,-645.14 -31.42,8.92 -65.65,40.43 -41.42,73.91 17.66,24.38 187.81,167.75 218.86,191.97 123.7,96.66 344.56,276.26 471.13,391.35zm1558.64 -385.11c10.62,13.33 29.69,27.35 54.17,32.13 26.41,5.22 35.52,-15.06 46.26,-35 40.83,-75.83 408.57,-760.97 405.67,-804.74 -13.12,-15.25 -26.95,-29.78 -50.38,-34.81 -31.35,-6.73 -40.86,16.42 -50.52,35.46 -96.86,191.02 -195.99,381.35 -294.29,571.59 -20.68,41.27 -112.74,201.42 -110.93,235.37zm-1512.96 1828c-21.7,0.92 -28.3,-15.16 -69.13,11.73 -16.55,10.93 -38.09,25.06 -55,37.4l-213.43 152.77c-65.68,44.29 -146.85,108.76 -212.37,153.82 -37.44,25.77 -66.58,47.47 -108.3,76.39 -22.44,15.55 -142.8,102.31 -156.45,121.01 -17.99,24.72 1.73,53.67 15.25,64.66 29.72,24.1 76.45,-18.83 117.07,-48.7 36.51,-26.89 70.77,-51.42 107.19,-77.65l213.24 -152.96c16.7,-12.74 34.47,-24.56 52.25,-36.76l161.51 -115.89c36.54,-26.36 70.96,-48.34 108.68,-75.96 47.25,-34.6 79.9,-39.81 39.5,-109.87zm509.84 -1793.77c-0.22,-29.9 -342.12,-698.66 -402.71,-828.56 -37.5,-80.44 -94.87,-23.4 -98.86,-2.19 -5.83,31.11 142.04,309.37 165.58,359.84l175.36 354.78c5.87,11.45 68.68,137.77 76.67,142.74 35.31,21.82 62.87,1.14 83.96,-26.6zm2205.57 -305.21c-30.12,10.86 -79.5,47.62 -111.14,71.2 -61.95,46.14 -147.28,113 -208.24,154.63 -79.69,54.44 -184.38,140.21 -259.74,192.03l-160.62 113.11c-19.13,14.2 -33.95,26.98 -18.33,59.57 9.63,20.03 24.02,42.72 51.76,32 40.09,-15.49 173.29,-117.16 215.36,-147.28l260.37 -191.48c85.03,-60.55 175,-132.12 262.27,-192.9 9.48,-6.57 19.17,-10.18 22.68,-22.06 3.64,-12.38 4.39,-26.27 -0.21,-37.29 -6.94,-16.6 -29.26,-40.52 -54.17,-31.54zm-1719.56 -801.9c-38.95,12.09 -30.52,46.14 -30.74,107.87l2.23 547.52c0.24,43.02 -2.56,98.76 1.29,140.27 3.79,40.62 2.25,89.66 2.59,133.48 0.18,26.11 -2.9,42.84 12.65,57.41 13.95,13.08 36.08,19.23 56.69,13.8 38.89,-10.21 29.45,-65.5 28.92,-108.83l-4.44 -410.67c-1.08,-89.72 -3.06,-182.29 -3.68,-273.77 -0.27,-45.65 -0.96,-91.23 -1.02,-136.91 -0.05,-43.58 -12.81,-86.29 -64.5,-70.18zm-1542.9 1901.63c49.38,8.43 235.21,73.52 297.62,85.09 23.4,4.32 34.01,3.77 43.49,-15.06 8.98,-17.9 18.98,-50.71 -0.99,-64.78l-12.25 -10.71c-10.71,-0.46 -37.69,-14.66 -53.76,-19.29l-179.82 -53.48c-75.33,-23.4 -702.26,-215.86 -724.12,-209.84 -18.46,9.72 -54.01,52.47 -31.45,79.29 17.93,21.29 244.07,84.75 278.42,95.4l287.28 85.3c23.73,7.6 78.58,19.13 95.59,28.08zm4839.14 1476.64c2.56,-5.28 -7.71,-3.76 10.86,-5.56l51.72 0.68c22.81,-0.03 45.65,-0.25 68.46,-0.25 28.77,-0.02 110.31,4.01 131.08,-2.62 1.26,-2.34 1.39,1.2 3.55,-8.27 4.1,-18.12 1.05,-99.73 -2.56,-110.89 -54.17,-6.61 -139.5,-1.14 -197.1,-1.3 -55.61,-0.12 -139.87,-4.62 -192.43,2.38 -10.32,26.2 -5.93,797.42 -0.78,805.48 5.53,4.91 107.41,7.62 119.69,-0.06 4.84,-32.16 2.63,-289.47 2.44,-343.17 -0.18,-57.04 -0.37,-114.1 -0.09,-171.11l-0.43 -150.92c0.53,-13.24 -2.34,-13.14 5.59,-14.38zm2089.28 -6.23c25.68,-1.58 169.28,-0.78 183.52,4.59 5.43,29.39 2.12,291.54 2.22,344.9 0.06,47.07 -3.49,319.13 3.89,339.81 22.41,2.37 102.47,5.31 117.59,-1.79 6.76,-7.22 3.15,-543.97 1.36,-646 -0.43,-24.97 -3.34,-32.84 8.24,-38.27l200.67 -0.59c1.18,-17.46 4.7,-114.87 -2.99,-123.11 -4.97,-5.34 1.48,-4.35 -28.7,-4.44l-486.07 -0.86c-27.47,0.34 -35.06,-3.12 -36.6,13.14 -1.72,18.15 -1.91,104.23 2.5,109.23 3.46,2.34 0.22,2.09 6.98,3.43 2.07,0.43 7.75,0.74 10,0.83 6.08,0.22 12.38,-0.13 17.41,-0.86zm1459.17 -1164.02l-1.39 811.15 441.6 4.01 -0.56 -122.93 -0.46 3.39c-43.34,-2.16 -298.89,1.02 -313.79,-6.7 -5.4,-17.16 -4.62,-243.08 0.25,-252.65 6.36,-5.21 -8.49,-1.98 9.88,-4.66 2.84,-0.4 13.73,0.06 17.25,0.13 40.92,0.99 203.3,3.24 220.18,-1.86 6.07,-18.21 4.41,-86.08 1.54,-109.72 -57.6,-5.21 -208.49,1.21 -232.22,-1.29 -20.74,-2.19 -7.34,1.26 -13.54,-6.48 -6.61,1.18 -5.56,-176.14 -2.38,-194.01 49.91,-6.66 306.23,6.02 317.78,-3.55 0.46,-0.8 1.26,-2.87 1.39,-2.41 1.7,5.56 6.23,-85.12 1.36,-111.44 -20.28,-5.46 -403.82,-3.58 -446.87,-0.99zm-3843.2 1854.41l-5.21 -119.29c-32.6,-12.13 -237.19,2.93 -295.89,-4.88 -5.53,-23.12 -4.91,-201.2 -1.42,-229.57 42.84,-5.62 221.08,6.45 241.47,-4.48 3.8,-2.69 6.02,5.28 6.08,-23.64 0.22,-96.48 11.39,-95.49 -29.23,-95.22 -10.31,0.09 -20.55,0.03 -30.83,0 -32.9,-0.06 -177.5,4.48 -185.68,-3.3 -3.7,-3.55 -3.27,-14.48 -3.33,-21.3l0.67 -178.64c3.09,-6.17 -2.84,-7.65 13.61,-9.1l133.64 -0.09c31.42,-0.31 127.71,3.24 151.32,-2.59 6.2,-36.05 0.83,-82.47 1.02,-119.38l-0.74 0.34 -426.53 -0.68c-10.93,35.8 -2.35,710.6 -2.35,807.08 19.42,10.21 382.62,6.85 433.39,4.73zm3164.1 -307.31c2.96,-16.02 112.22,-262.06 119.91,-272.06 11.14,11.05 52.9,113.7 61.91,135.49 19.13,46.33 42.84,92.34 60.28,136.64l-242.1 -0.06zm-275.03 306.33l134.75 2.47c23.08,-31.58 72.13,-176.57 94.25,-203.46l340.43 1.39c15.18,30 29.57,66.91 43.06,100.65 10.83,27.1 32,82.07 45.74,100.98l132.93 0.06c-2.16,-22.1 -75.52,-173.61 -91.53,-208.29 -32.32,-70.07 -63.74,-136.51 -96.97,-204.69 -16.36,-33.55 -31.36,-68.05 -47.84,-102.52 -15.71,-32.84 -32.77,-67.87 -48.49,-102.13 -14.93,-32.5 -85.64,-183.39 -100.31,-200.39l-21.94 0.12c-33.21,37.51 -164.63,339.14 -195.16,406.97l-188.92 408.86zm-2688.22 -1088.13l1.11 -135.37c-14.63,0.8 -95.31,57.96 -156.61,68.08 -56.98,9.41 -165.09,7.63 -213.21,-11.26 -56.36,-22.13 -97.31,-51.58 -128.95,-103.55 -25.89,-42.56 -49.66,-123.36 -48.92,-185.27 0.74,-59.97 25.09,-132.9 55.53,-175.09 31.42,-43.61 70.39,-74.26 134.01,-98.64 59.13,-22.66 141.39,-23.06 203.61,-4.6 81.91,24.35 123.05,74.72 151.36,79.13 2.31,-35.28 9.32,-107.34 4.29,-139.6 -16.6,-17.03 -64.5,-39.84 -94.94,-51.79 -179.5,-70.37 -428.66,-3.61 -527.36,161.82 -38.71,64.84 -68.03,138.17 -68.95,228.76 -0.92,87 23.89,176.14 60.18,237.62 81.14,137.41 235.19,201.54 398.52,197.69 62.96,-1.48 189.78,-36.57 230.33,-67.93zm2056.35 -321.01l-0.67 -0.34c2.99,-5.28 0.92,-7.44 21.01,-7.93 7.78,-0.22 16.2,0.09 24.04,0.19 55.06,0.61 337.87,-3.77 345.74,2.34 13.36,10.4 3.37,324.22 5.31,372.86l121.08 2.34 0.24 -809.33 -122.72 -0.03 -2.62 309.81c-6.83,10.31 -24.75,6.85 -45.81,6.61 -17.16,-0.25 -34.2,0.09 -51.36,0.19 -56.42,0.31 -270.06,4.69 -296.57,-2.75 -11.58,-42.93 4.57,-283.17 -5.37,-312.92 -16.2,-6.61 -99.69,-4.94 -118.8,-0.92 -8.79,17.59 -3.55,596.35 -2.13,708.38 0.34,26.14 -2.12,75.99 1.86,98.86l123.61 2.07 -1.83 -323.36c0.06,-7.99 0,-16.08 0.09,-24.01 0.22,-22.81 2.41,-18.21 4.88,-22.04zm-170.18 728.48c0.44,0.92 1.05,1.98 1.3,2.75 4.97,16.26 2.28,653.31 2.87,677.43l120.83 -0.65c6.94,-29.42 1.42,-801.25 -1.58,-808.87 -26.3,-10.86 -230.52,-0.78 -278.52,-1.76 -49.63,-2.9 -190.99,1.27 -256.76,1.76l-65.12 0.34c-12.19,0.19 -12.63,-0.62 -21.11,3.79 -5.43,11.51 -8.68,779.03 -0.65,802.67 19.85,7.25 97.93,3.55 124.78,1.73 8.51,-89.14 -9.08,-656.75 3.24,-679.96 8.15,-11.77 65.55,-7.01 88.92,-7.16l263.79 0.28c13.27,0.55 13.54,-0.62 17.99,7.65zm-1390.5 -1065.69c34.42,-9.66 105.71,-0.37 135.77,7.87 105.46,28.86 191.23,117.57 209.93,241.75 14.38,95.71 -13.7,176.17 -56.66,238.18 -90.03,130.03 -330.64,140.77 -434.03,50.27 -120.77,-105.71 -149.14,-304.93 -43.64,-428.6 61.08,-71.66 102.9,-85.46 188.63,-109.48z"/>
 </g>
</svg>
