<svg width="445" height="134" viewBox="0 0 445 134" fill="none" xmlns="http://www.w3.org/2000/svg">
<rect width="134" height="134" rx="20" fill="#25DA58"/>
<path d="M105.86 35.7058L91.4751 68.9361C91.4751 76.9556 93.305 83.1315 97.0156 87.3717C98.2356 88.8005 100.116 90.1371 102.709 91.3815L98.5405 103.18C94.8299 101.936 91.6276 99.7697 88.8827 96.6357C87.1545 94.6077 85.5279 92.2572 84.0538 89.4918C80.8007 94.4234 77.1408 97.834 72.9727 99.6314C69.8212 101.06 65.9581 101.752 61.3325 101.752C52.0305 101.752 44.2534 98.7558 38.1029 92.7181C31.4441 86.3117 28.1401 77.6469 28.1401 66.6777C28.1401 62.8523 28.3943 59.3956 28.9026 56.3998C29.4109 53.404 30.3259 50.5465 31.5966 47.8733C34.2906 42.4348 37.8996 38.2868 42.5252 35.4292C47.1508 32.5717 52.488 31.1429 58.5877 31.1429C64.2299 31.1429 69.1096 32.1569 73.2269 34.1387C79.0216 36.9041 83.2914 41.4208 85.9345 47.6889L94.4233 30.8203L105.86 35.7058ZM78.3608 68.7978C78.4624 68.4752 78.5133 67.9221 78.5133 67.1847C78.5133 66.7699 78.5133 66.4472 78.5133 66.1707C78.5133 65.9403 78.4624 65.6637 78.3608 65.4333C78.3608 59.58 76.5309 54.3719 72.9219 49.8091C69.2621 45.2462 65.2465 42.9879 60.8242 42.9879C55.5887 42.9879 51.3189 45.0158 48.1166 49.1177C44.6093 53.5423 42.881 59.7182 42.881 67.6917C42.881 74.9737 44.6601 80.5505 48.2691 84.3759C51.4714 87.7865 55.5378 89.5379 60.4176 89.5379C63.8232 89.5379 66.6189 88.6161 68.703 86.7726C72.1595 83.6385 75.4126 77.693 78.3608 68.7978Z" fill="white"/>
<path d="M203.549 99.6C214.511 99.6 220.945 93.6556 221.898 91.3967H222.256V98.4111H240.724V36.5889H222.256V43.6033H221.898C220.945 41.3444 214.511 35.4 203.549 35.4C189.489 35.4 174 45.9811 174 67.5C174 89.0189 189.489 99.6 203.549 99.6ZM192.23 67.5C192.23 57.5133 199.498 51.8067 207.362 51.8067C215.464 51.8067 222.732 57.3944 222.732 67.5C222.732 77.6056 215.464 83.1933 207.362 83.1933C199.498 83.1933 192.23 77.4867 192.23 67.5Z" fill="#262626"/>
<path d="M251.913 98.4111H270.381V14H251.913V98.4111Z" fill="#262626"/>
<path d="M307.558 99.1244C311.848 99.1244 317.09 98.2922 319.473 95.9144V81.8856C317.209 82.5989 315.065 82.8367 313.635 82.8367C308.035 82.8367 306.248 79.5078 306.248 76.4167V51.2122H319.235V36.5889H306.248V20.7767H287.779V36.5889H278.605V51.2122H287.779V79.3889C287.779 93.5367 296.12 99.1244 307.558 99.1244Z" fill="#262626"/>
<path d="M328.01 98.4111H346.478V72.9689C346.478 61.3178 353.508 53.1144 365.78 53.1144C367.329 53.1144 368.64 53.2333 370.07 53.4711V35.9944C368.521 35.5189 367.091 35.4 365.661 35.4C354.461 35.4 348.504 43.3656 346.478 53.3522V36.5889H328.01V98.4111Z" fill="#262626"/>
<path d="M378.276 121H396.744V91.3967H397.102C398.055 93.6556 404.489 99.6 415.451 99.6C429.511 99.6 445 89.0189 445 67.5C445 45.9811 429.511 35.4 415.451 35.4C404.489 35.4 398.055 41.3444 397.102 43.6033H396.744V36.5889H378.276V121ZM396.268 67.5C396.268 57.3944 403.536 51.8067 411.638 51.8067C419.502 51.8067 426.77 57.5133 426.77 67.5C426.77 77.4867 419.502 83.1933 411.638 83.1933C403.536 83.1933 396.268 77.6056 396.268 67.5Z" fill="#262626"/>
</svg>
